<?xml version="1.0" encoding="utf-8"?>
<!-- Generator: Adobe Illustrator 23.0.5, SVG Export Plug-In . SVG Version: 6.00 Build 0)  -->
<svg version="1.1" id="Layer_1" xmlns="http://www.w3.org/2000/svg" xmlns:xlink="http://www.w3.org/1999/xlink" x="0px" y="0px"
	 viewBox="0 0 640 640" style="enable-background:new 0 0 640 640;" xml:space="preserve">
<style type="text/css">
	.st0{display:none;}
	.st1{display:inline;fill:#F5F5F5;}
	.st2{display:inline;}
	.st3{fill:#F5F5F5;}
	.st4{fill:#ECECEC;}
	.st5{display:inline;fill:#706E6E;}
	.st6{fill:#E1E1E1;}
	.st7{display:inline;fill:#606060;}
	.st8{fill:#BCBBBB;}
	.st9{fill:#B7B6B6;}
	.st10{fill:#1A2E35;}
	.st11{fill:#375A64;}
	.st12{fill:#FF4F5B;}
	.st13{display:inline;fill:#ECECEC;}
	.st14{opacity:0.3;}
	.st15{opacity:0.1;}
	.st16{fill:#FFFFFF;}
	.st17{fill:#FAFAFA;}
	.st18{opacity:0.5;}
	.st19{fill:#FFBF9D;}
	.st20{fill:#FF9A6C;}
	.st21{opacity:0.2;}
	.st22{opacity:0.4;}
	.st23{opacity:0.4;enable-background:new    ;}
	.st24{fill:none;stroke:#7A9198;stroke-width:5.000000e-02;stroke-miterlimit:10;}
</style>
<g class="st0">
	<path class="st1" d="M286.5,148.8l-2.6-5.1l-4.1,0.7l-3.4-4.8l1.8-4.7l-4.6-3.4l-3.4,3.9l-4.5-0.9l-1.8-5.9l-5.5,0.6l-0.3,5.2
		l-4.1,2.3l-4.3-3.4l-4.4,3.6l2.3,5.5l-2.6,4.4l-4.8-0.3L239,153l4.5,1.9l0.4,5.5l-4.7,3l2.2,5.7l4.9-0.8l3.2,4.1l-1.7,5.1l4.5,3.5
		l3.5-4.2l4.8,1.4l1.5,5.5l5.4-0.4l0.7-5l4.6-2.9l3.8,3.3l4.8-3.9l-2.4-4.7l2.3-4.7l4.8,0.4l1.5-6.1l-4.1-2.5l-0.6-5.5L286.5,148.8z
		 M267.8,166.7c-5.2,3.3-11.8,1.3-14.8-4.4c-3-5.8-1.2-13.1,4-16.4s11.8-1.3,14.8,4.4S273,163.4,267.8,166.7z"/>
	<g class="st2">
		<path class="st3" d="M267.2,152.7c0,0-0.3-0.5-0.9-1.2s-1.7-1.6-3.4-1.8c-0.8-0.1-1.7-0.1-2.6,0.3s-1.8,1-2.4,1.9
			c-0.3,0.4-0.6,1-0.9,1.5c-0.2,0.6-0.4,1.2-0.4,1.8c-0.1,1.3,0.1,2.6,0.7,3.8c0.6,1.2,1.5,2.1,2.6,2.6c0.5,0.3,1.1,0.4,1.6,0.5
			s1.1,0.1,1.6,0c1-0.2,2-0.7,2.7-1.4c0.7-0.7,1.2-1.5,1.5-2.3c0.6-1.7,0.5-3.2,0.3-4.1C267.5,153.2,267.2,152.7,267.2,152.7
			S267.3,152.8,267.2,152.7c0.1,0.2,0.1,0.2,0.2,0.4c0.1,0.1,0.1,0.3,0.2,0.4c0.1,0.2,0.1,0.4,0.2,0.6c0.1,0.5,0.2,1.1,0.2,1.8
			c0,0.7-0.1,1.6-0.4,2.4s-0.8,1.7-1.6,2.4c-0.7,0.7-1.7,1.3-2.8,1.5c-0.5,0.1-1.1,0.1-1.7,0.1c-0.6-0.1-1.1-0.2-1.7-0.5
			c-1.1-0.5-2.1-1.5-2.7-2.7s-0.9-2.6-0.7-4c0.1-0.7,0.2-1.3,0.5-1.9c0.2-0.6,0.5-1.1,0.9-1.6c0.7-0.9,1.6-1.6,2.5-1.9
			c0.9-0.4,1.8-0.4,2.7-0.3c0.8,0.1,1.5,0.4,2.1,0.8s1,0.8,1.3,1.1c0.2,0.2,0.3,0.4,0.4,0.5c0.1,0.2,0.2,0.3,0.3,0.4
			C267.1,152.5,267.2,152.6,267.2,152.7L267.2,152.7z"/>
	</g>
	<g class="st2">
		<path class="st3" d="M272.4,139.3c0,0-1.4,2.6-3.3,5.8c-1.9,3.2-3.4,5.7-3.5,5.7c0,0,1.4-2.6,3.3-5.8
			C270.8,141.8,272.3,139.3,272.4,139.3z"/>
	</g>
	<g class="st2">
		<path class="st3" d="M277.7,160.4c0,0-0.6-0.2-1.5-0.5s-2.1-0.7-3.5-1.1s-2.7-0.7-3.6-0.8c-0.9-0.2-1.5-0.3-1.5-0.3s0.1,0,0.4,0
			s0.6,0.1,1.1,0.1c0.9,0.1,2.2,0.4,3.6,0.8s2.6,0.8,3.5,1.2c0.4,0.2,0.8,0.3,1,0.4C277.6,160.3,277.7,160.4,277.7,160.4z"/>
	</g>
	<g class="st2">
		<path class="st3" d="M264.7,161.8c0,0,0.2,0.5,0.4,1.4c0.2,0.9,0.5,2.1,0.8,3.5s0.5,2.6,0.6,3.5s0.2,1.5,0.2,1.5s-0.1-0.6-0.3-1.5
			c-0.2-0.9-0.4-2.2-0.7-3.5c-0.3-1.4-0.6-2.6-0.8-3.5C264.8,162.4,264.7,161.8,264.7,161.8z"/>
	</g>
	<g class="st2">
		<path class="st3" d="M258.8,161.1c0,0-0.9,1.9-2.2,4.2c-1.3,2.3-2.3,4.1-2.4,4.1c0,0,0.9-1.9,2.2-4.2S258.8,161,258.8,161.1z"/>
	</g>
	<g class="st2">
		<path class="st3" d="M258,140.5c0.1,0,0.7,2,1.4,4.5c0.7,2.5,1.2,4.5,1.2,4.6c-0.1,0-0.7-2-1.4-4.5
			C258.5,142.6,257.9,140.5,258,140.5z"/>
	</g>
	<g class="st2">
		<path class="st3" d="M256.8,154.7c0,0.1-1.5,0-3.4-0.2s-3.4-0.4-3.4-0.5s1.5,0,3.4,0.2C255.3,154.4,256.8,154.6,256.8,154.7z"/>
	</g>
	<g class="st2">
		<path class="st3" d="M266.1,153.4c1.2,2.4,0.5,5.4-1.7,6.8c-2.1,1.4-4.9,0.5-6.1-1.8c-1.2-2.4-0.5-5.4,1.7-6.8
			S264.9,151.1,266.1,153.4z"/>
		<g>
			<path class="st4" d="M264.4,155.9c0,0-0.2-0.2-0.6-0.4c-0.4-0.2-0.9-0.5-1.6-0.6s-1.3,0-1.7,0.2c-0.4,0.1-0.7,0.3-0.7,0.2
				c0,0,0.2-0.2,0.6-0.4c0.4-0.2,1-0.3,1.7-0.3c0.7,0.1,1.3,0.4,1.7,0.7C264.3,155.7,264.4,155.9,264.4,155.9z"/>
		</g>
		<g>
			<path class="st4" d="M262.6,153c0.1,0-0.5,1-0.7,2.3s0,2.4-0.1,2.4c0,0-0.4-1.1-0.1-2.5C261.9,153.9,262.6,153,262.6,153z"/>
		</g>
	</g>
</g>
<g class="st0">
	<path class="st5" d="M398.5,168.3l-5.2-10.1l-8.2,1.3l-6.8-9.5l3.5-9.4l-9.2-6.8l-6.8,7.7l-9-1.8l-3.7-11.8l-10.9,1.3l-0.6,10.3
		l-8.2,4.6l-8.6-6.8l-8.8,7.1l4.5,10.9l-5.2,8.7l-9.5-0.6l-2.5,13l9,3.8l0.8,10.9l-9.3,6l4.5,11.2l9.7-1.7l6.4,8.2l-3.3,10.2
		l8.9,6.9l6.9-8.3l9.6,2.9l3,11l10.7-0.8l1.4-9.9l9.1-5.8l7.5,6.6l9.4-7.8l-4.8-9.2l4.7-9.3l9.6,0.8L400,190l-8.2-4.9l-1.1-11
		L398.5,168.3z M361.4,203.8c-10.3,6.6-23.5,2.6-29.4-8.8c-5.9-11.5-2.4-26.1,8-32.7c10.3-6.6,23.5-2.6,29.4,8.8
		C375.3,182.6,371.7,197.2,361.4,203.8z"/>
	<g class="st2">
		<path class="st6" d="M360.3,176.1c-0.1,0-0.5-1-1.8-2.4c-1.2-1.4-3.5-3.2-6.7-3.7c-1.6-0.2-3.4-0.1-5.1,0.6s-3.5,1.9-4.9,3.7
			c-0.7,0.9-1.3,1.9-1.7,3c-0.4,1.1-0.8,2.3-0.9,3.6c-0.3,2.5,0.2,5.2,1.4,7.6c1.2,2.3,3.1,4.2,5.2,5.2c1,0.5,2.1,0.9,3.2,1
			s2.2,0.1,3.2-0.1c2.1-0.4,3.9-1.5,5.4-2.8c1.4-1.3,2.4-3,3.1-4.6c1.3-3.3,1-6.4,0.5-8.2C360.8,177.1,360.2,176.1,360.3,176.1
			c0,0,0,0.1,0.1,0.2s0.2,0.3,0.3,0.5c0.1,0.2,0.3,0.5,0.4,0.9s0.3,0.8,0.4,1.3c0.3,1,0.5,2.2,0.5,3.6s-0.2,3.1-0.9,4.8
			c-0.6,1.7-1.6,3.4-3.1,4.8s-3.4,2.5-5.5,2.9c-1.1,0.2-2.2,0.3-3.3,0.1c-1.1-0.1-2.3-0.5-3.4-1c-2.2-1-4.1-2.9-5.4-5.4
			c-1.2-2.4-1.7-5.2-1.4-7.9c0.1-1.3,0.4-2.6,0.9-3.7c0.5-1.2,1-2.2,1.8-3.1c1.4-1.9,3.2-3.1,5-3.8c1.8-0.7,3.7-0.8,5.3-0.6
			c1.6,0.2,3,0.9,4.2,1.6c1.1,0.7,2,1.5,2.6,2.3c0.3,0.4,0.6,0.7,0.8,1c0.2,0.3,0.4,0.6,0.5,0.8c0.1,0.2,0.2,0.4,0.3,0.5
			C360.2,176.1,360.3,176.1,360.3,176.1z"/>
	</g>
	<g class="st2">
		<path class="st6" d="M370.5,149.5c0.1,0.1-2.8,5.2-6.6,11.5c-3.7,6.3-6.8,11.3-6.9,11.3c-0.1-0.1,2.8-5.2,6.6-11.5
			C367.3,154.5,370.4,149.4,370.5,149.5z"/>
	</g>
	<g class="st2">
		<path class="st6" d="M381.1,191.3c0,0.1-1.1-0.3-2.9-0.9s-4.2-1.4-7-2.2c-2.8-0.7-5.3-1.3-7.1-1.7c-1.8-0.4-3-0.6-3-0.6
			s0.3,0,0.8,0s1.3,0.1,2.2,0.3c1.8,0.3,4.4,0.8,7.1,1.5c2.8,0.8,5.2,1.6,7,2.3c0.9,0.3,1.6,0.6,2.1,0.9
			C380.8,191.2,381.1,191.3,381.1,191.3z"/>
	</g>
	<g class="st2">
		<path class="st6" d="M355.2,194.1c0.1,0,0.4,1.1,0.9,2.8c0.5,1.8,1.1,4.2,1.7,6.9c0.6,2.7,1,5.2,1.3,7s0.4,2.9,0.3,3
			c-0.1,0-0.3-1.1-0.6-2.9c-0.3-1.8-0.8-4.3-1.4-7s-1.1-5.2-1.5-7C355.4,195.2,355.1,194.1,355.2,194.1z"/>
	</g>
	<g class="st2">
		<path class="st6" d="M343.6,192.6c0.1,0.1-1.8,3.8-4.3,8.4s-4.6,8.2-4.7,8.2c-0.1-0.1,1.8-3.8,4.3-8.4S343.5,192.6,343.6,192.6z"
			/>
	</g>
	<g class="st2">
		<path class="st6" d="M341.9,151.9c0.1,0,1.3,4,2.7,8.9c1.4,5,2.4,9,2.3,9s-1.3-4-2.7-8.9C342.8,156,341.8,151.9,341.9,151.9z"/>
	</g>
	<g class="st2">
		<path class="st6" d="M339.5,180c0,0.1-3-0.1-6.7-0.5s-6.7-0.8-6.7-0.9s3,0.1,6.7,0.5S339.5,179.9,339.5,180z"/>
	</g>
	<ellipse class="st7" cx="350.4" cy="182.4" rx="8.9" ry="9.9"/>
	<g class="st2">
		<path class="st8" d="M354.7,182.5c0,0.1-0.5-0.3-1.2-0.8c-0.8-0.5-1.9-1-3.2-1.1c-1.3-0.2-2.5,0.1-3.3,0.4s-1.3,0.6-1.3,0.5
			c0,0,0.4-0.4,1.3-0.8c0.8-0.4,2.1-0.7,3.5-0.5s2.5,0.8,3.3,1.3C354.3,182,354.7,182.5,354.7,182.5z"/>
	</g>
	<g class="st2">
		<path class="st9" d="M351.1,176.7c0.1,0.1-1,1.9-1.4,4.6c-0.4,2.6,0,4.8-0.1,4.8c-0.1,0.1-0.7-2.2-0.3-4.9
			C349.7,178.4,351,176.6,351.1,176.7z"/>
	</g>
</g>
<g class="st0">
	<g class="st2">
		<path class="st4" d="M172.7,379.9l-2.2-4.3l-3.5,0.6l-2.9-4l1.5-4l-3.9-2.8l-2.9,3.2l-3.8-0.7l-1.5-5l-4.6,0.5l-0.3,4.3l-3.4,1.9
			l-3.6-2.9l-3.7,3l1.9,4.6l-2.2,3.7l-4-0.2l-1,5.5l3.8,1.6l0.3,4.6l-3.9,2.5l1.9,4.7l4.1-0.7l2.7,3.5l-1.4,4.3l3.7,2.9l2.9-3.5
			l4,1.2l1.3,4.6l4.5-0.3l0.6-4.2l3.8-2.5l3.1,2.8l4-3.3l-2-3.9l2-3.9l4,0.3l1.2-5.1l-3.5-2.1l-0.5-4.6L172.7,379.9z M157.1,394.8
			c-4.3,2.8-9.9,1.1-12.4-3.7s-1-11,3.3-13.8s9.9-1.1,12.4,3.7C163,385.9,161.5,392.1,157.1,394.8z"/>
	</g>
	<g class="st2">
		<g>
			<path class="st4" d="M156.6,383.2c0,0-0.2-0.4-0.8-1c-0.5-0.6-1.5-1.3-2.8-1.5s-3,0.3-4.1,1.8c-1.1,1.4-1.5,3.9-0.5,5.8
				c1,2,3.1,2.9,4.8,2.5c1.7-0.3,3-1.7,3.5-3c0.5-1.4,0.4-2.6,0.3-3.4C156.8,383.6,156.6,383.2,156.6,383.2s0.1,0.1,0.2,0.3
				s0.2,0.5,0.4,0.9c0.2,0.8,0.4,2.1-0.1,3.6c-0.5,1.4-1.8,3-3.7,3.3c-0.9,0.2-1.9,0.1-2.9-0.4c-0.9-0.4-1.8-1.3-2.3-2.3
				c-0.5-1.1-0.8-2.3-0.6-3.4c0.1-1.1,0.5-2.2,1.2-3c1.2-1.6,3.1-2.1,4.4-1.9c1.4,0.2,2.4,1,2.9,1.7c0.3,0.3,0.4,0.6,0.5,0.8
				C156.6,383.1,156.6,383.2,156.6,383.2z"/>
		</g>
	</g>
	<g class="st2">
		<g>
			<path class="st4" d="M160.9,371.9c0.1,0.1-1.1,2.3-2.7,4.9c-1.6,2.7-2.9,4.7-3,4.7c-0.1-0.1,1.1-2.3,2.7-4.9
				C159.5,374,160.8,371.9,160.9,371.9z"/>
		</g>
	</g>
	<g class="st2">
		<g>
			<path class="st4" d="M165.4,389.6c0,0.1-1.9-0.6-4.2-1.2c-2.3-0.6-4.2-1-4.2-1.1s2,0,4.3,0.6
				C163.6,388.6,165.4,389.5,165.4,389.6z"/>
		</g>
	</g>
	<g class="st2">
		<g>
			<path class="st4" d="M154.5,390.7c0.1,0,0.7,1.8,1.2,4.1s0.7,4.2,0.5,4.2c-0.1,0-0.5-1.8-1-4.1
				C154.8,392.6,154.4,390.8,154.5,390.7z"/>
		</g>
	</g>
	<g class="st2">
		<g>
			<path class="st4" d="M149.6,390.1c0.1,0.1-0.7,1.7-1.7,3.6c-1,1.9-2,3.4-2.1,3.4c-0.1-0.1,0.7-1.7,1.7-3.6
				C148.6,391.6,149.5,390.1,149.6,390.1z"/>
		</g>
	</g>
	<g class="st2">
		<g>
			<path class="st4" d="M148.9,373c0.1,0,0.7,1.6,1.2,3.7c0.6,2.1,1,3.8,0.8,3.9c-0.1,0-0.7-1.6-1.2-3.7
				C149.2,374.7,148.8,373,148.9,373z"/>
		</g>
	</g>
	<g class="st2">
		<g>
			<path class="st4" d="M147.9,384.8c0,0.1-1.3,0.1-2.8-0.1c-1.6-0.2-2.8-0.4-2.8-0.5s1.3-0.1,2.8,0.1
				C146.6,384.4,147.9,384.7,147.9,384.8z"/>
		</g>
	</g>
	<g class="st2">
		<g>
			<path class="st4" d="M155.7,383.7c1,2,0.4,4.5-1.4,5.7c-1.8,1.1-4.1,0.5-5.1-1.5s-0.4-4.5,1.4-5.7
				C152.4,381.1,154.7,381.8,155.7,383.7z"/>
		</g>
		<g>
			<g>
				<path class="st6" d="M154.3,385.8c-0.1,0.1-0.8-0.6-1.9-0.7c-1.1-0.1-1.9,0.3-2,0.2s0.8-0.8,2-0.7
					C153.7,384.9,154.4,385.8,154.3,385.8z"/>
			</g>
		</g>
		<g>
			<g>
				<path class="st6" d="M152.8,383.4c0.1,0.1-0.3,0.9-0.5,2s-0.1,2-0.2,2s-0.4-0.9-0.2-2.1C152.1,384.1,152.7,383.3,152.8,383.4z"
					/>
			</g>
		</g>
	</g>
</g>
<g class="st0">
	<g class="st2">
		<path class="st10" d="M333.9,301.8v-6.5l-4.3-1.9l-0.9-6.6l4-3.5l-2.7-6.1l-5.2,1.6l-3.9-3.6l1.2-6.8l-5.6-2.7l-2.9,4.8l-5.1-0.3
			l-2.5-5.9l-6,0.7l-0.5,6.6l-4.7,2.6l-4.4-3.2l-4.4,5.5l3.4,4.6l-2.3,5.5h-6l-0.7,6.8l5.1,2.2l1,5.9l-4.2,3.9l2.5,6.1l5.4-1.9
			l3.9,4.3l-1.3,6.2l5.3,2.9l3.1-4.3h5.9l2,5.5l6.5-0.9v-5.9l4.6-3l4.4,3.3l4.4-4.9l-2.7-4.9l2.2-5.6L333.9,301.8z M307.1,307.5
			c-6.6,0-12-6-12-13.3s5.4-13.3,12-13.3s12,6,12,13.3S313.7,307.5,307.1,307.5z"/>
	</g>
	<g class="st2">
		<g>
			<path class="st10" d="M313.5,293.7c0,0,0-0.6-0.3-1.7c-0.3-1-0.9-2.6-2.3-3.8c-0.7-0.6-1.6-1.1-2.6-1.3c-1-0.2-2.1-0.1-3.2,0.3
				s-2.1,1.3-2.8,2.4c-0.8,1.1-1.2,2.5-1.2,4s0.4,2.9,1.2,4c0.7,1.1,1.8,1.9,2.8,2.4c1.1,0.5,2.2,0.5,3.2,0.3s1.9-0.7,2.6-1.3
				c1.4-1.2,2.1-2.7,2.3-3.8C313.4,294.4,313.4,293.7,313.5,293.7c0,0,0,0.2,0,0.5s0,0.7-0.1,1.3c-0.2,1.1-0.8,2.7-2.3,4
				c-0.7,0.6-1.6,1.2-2.7,1.4c-1.1,0.2-2.3,0.2-3.4-0.3c-1.2-0.4-2.3-1.3-3-2.5c-0.8-1.2-1.3-2.7-1.3-4.3c0-1.6,0.5-3.1,1.3-4.3
				c0.8-1.2,1.9-2.1,3-2.5c1.2-0.5,2.4-0.5,3.4-0.3c1.1,0.2,2,0.8,2.7,1.4c1.5,1.3,2.1,2.9,2.3,4c0.1,0.6,0.1,1,0.1,1.3
				C313.5,293.6,313.5,293.7,313.5,293.7z"/>
		</g>
	</g>
	<g class="st2">
		<g>
			<path class="st10" d="M325,284.1c0.1,0.1-2.6,1.7-6,3.6s-6.1,3.3-6.2,3.2c-0.1-0.1,2.6-1.7,6-3.6
				C322.2,285.4,325,283.9,325,284.1z"/>
		</g>
	</g>
	<g class="st2">
		<g>
			<path class="st10" d="M319.7,307.5c-0.1,0.1-1.8-2.1-4-4.5c-2.3-2.4-4.3-4.2-4.2-4.3c0,0,0.6,0.3,1.4,1s1.9,1.7,3.1,2.9
				c1.1,1.2,2.1,2.4,2.8,3.3C319.4,306.9,319.8,307.4,319.7,307.5z"/>
		</g>
	</g>
	<g class="st2">
		<g>
			<path class="st10" d="M306.5,300.9c0.1,0-0.3,2.5-1.1,5.5c-0.8,3-1.7,5.3-1.8,5.3c-0.1,0,0.6-2.4,1.4-5.4
				S306.4,300.8,306.5,300.9z"/>
		</g>
	</g>
	<g class="st2">
		<g>
			<path class="st10" d="M301.3,296.6c0.1,0.1-1.8,1.4-4.1,2.8c-2.3,1.4-4.3,2.5-4.3,2.4c-0.1-0.1,1.8-1.4,4.1-2.8
				C299.3,297.5,301.2,296.5,301.3,296.6z"/>
		</g>
	</g>
	<g class="st2">
		<g>
			<path class="st10" d="M310.7,276.4c0.1,0-0.3,2.3-0.8,5.1c-0.6,2.8-1.1,5.1-1.2,5s0.3-2.3,0.8-5.1
				C310,278.6,310.6,276.4,310.7,276.4z"/>
		</g>
	</g>
	<g class="st2">
		<g>
			<path class="st10" d="M302.5,289.2c-0.1,0.1-1.5-0.9-3.2-2.2c-1.7-1.3-3-2.5-2.9-2.6s1.5,0.9,3.2,2.2
				C301.2,288,302.5,289.1,302.5,289.2z"/>
		</g>
	</g>
	<g class="st2">
		<g>
			<path class="st10" d="M312.1,293.7c0,3-2.2,5.5-4.9,5.5c-2.7,0-4.9-2.5-4.9-5.5s2.2-5.5,4.9-5.5
				C309.9,288.3,312.1,290.7,312.1,293.7z"/>
		</g>
		<g>
			<g>
				<path class="st11" d="M309.2,295.1c-0.1,0.1-0.5-1.3-1.7-2.2c-1.2-1-2.4-1-2.4-1.1s0.3-0.1,0.8-0.1c0.5,0.1,1.2,0.3,1.8,0.8
					c0.6,0.5,1.1,1.2,1.3,1.7C309.2,294.7,309.2,295.1,309.2,295.1z"/>
			</g>
		</g>
		<g>
			<g>
				<path class="st11" d="M308.9,291.2c0.1,0.1-0.9,0.7-1.7,1.8c-0.9,1.1-1.2,2.3-1.3,2.2c-0.1,0,0.1-1.3,1-2.5
					S308.9,291.1,308.9,291.2z"/>
			</g>
		</g>
	</g>
</g>
<g class="st0">
	<g class="st2">
		<path class="st12" d="M306.8,224.2l-4-7.7l-6.2,1l-5.1-7.1l2.6-7.1l-6.9-5.1L282,204l-6.8-1.3l-2.8-8.9l-8.3,1l-0.5,7.8l-6.2,3.5
			l-6.5-5.1l-6.6,5.3l3.4,8.2l-3.9,6.6l-7.1-0.4l-1.9,9.8l6.8,2.9l0.6,8.2l-7,4.5l3.4,8.5l7.3-1.3l4.8,6.2l-2.5,7.7l6.7,5.2l5.2-6.3
			l7.2,2.2l2.3,8.3l8-0.6l1-7.5l6.9-4.4l5.6,5l7.1-5.9l-3.6-7l3.5-7l7.2,0.6l2.2-9.1l-6.2-3.7l-0.8-8.3L306.8,224.2z M278.8,251
			c-7.8,5-17.7,2-22.2-6.7c-4.5-8.6-1.8-19.7,6-24.7s17.7-2,22.2,6.7S286.6,246.1,278.8,251z"/>
	</g>
	<g class="st2">
		<g>
			<path class="st10" d="M277.9,230.1c0,0-0.4-0.7-1.3-1.8c-0.9-1.1-2.6-2.4-5-2.7c-1.2-0.2-2.5-0.1-3.9,0.5
				c-1.3,0.5-2.6,1.4-3.6,2.8c-0.5,0.7-0.9,1.4-1.3,2.3c-0.3,0.8-0.6,1.8-0.6,2.7c-0.2,1.9,0.2,3.9,1.1,5.7c0.9,1.7,2.3,3.1,3.9,3.9
				c0.8,0.4,1.6,0.6,2.4,0.7s1.6,0.1,2.4-0.1c1.6-0.3,2.9-1.1,4-2.1s1.8-2.3,2.3-3.5c1-2.5,0.8-4.8,0.4-6.2
				C278.3,230.9,277.9,230.1,277.9,230.1s0.5,0.7,0.9,2.1s0.7,3.8-0.3,6.4c-0.5,1.3-1.2,2.6-2.4,3.6c-1.1,1-2.5,1.9-4.2,2.2
				c-0.8,0.2-1.7,0.2-2.5,0.1c-0.9-0.1-1.7-0.4-2.5-0.8c-1.7-0.8-3.1-2.2-4.1-4.1c-0.9-1.8-1.3-4-1.1-6c0.1-1,0.3-2,0.7-2.8
				c0.3-0.9,0.8-1.7,1.3-2.4c1.1-1.4,2.4-2.4,3.8-2.9s2.8-0.6,4-0.4c2.5,0.4,4.2,1.8,5.1,2.9C277.6,229.3,277.9,230.1,277.9,230.1z"
				/>
		</g>
	</g>
	<g class="st2">
		<g>
			<path class="st10" d="M285.7,210c0.1,0.1-2.1,4-4.9,8.7c-2.8,4.8-5.2,8.5-5.3,8.5c-0.1-0.1,2.1-4,4.9-8.7
				C283.2,213.7,285.6,209.9,285.7,210z"/>
		</g>
	</g>
	<g class="st2">
		<g>
			<path class="st10" d="M293.6,241.6c0,0.1-0.9-0.2-2.2-0.7c-1.3-0.5-3.2-1-5.3-1.6c-2.1-0.6-4-1-5.3-1.3c-1.4-0.3-2.2-0.5-2.2-0.5
				c0-0.1,0.9,0,2.3,0.2s3.3,0.6,5.4,1.1c2.1,0.6,3.9,1.2,5.3,1.7C292.9,241.2,293.7,241.6,293.6,241.6z"/>
		</g>
	</g>
	<g class="st2">
		<g>
			<path class="st10" d="M274.1,243.7c0.1,0,0.3,0.8,0.7,2.1c0.4,1.3,0.8,3.2,1.3,5.2c0.4,2.1,0.7,4,0.9,5.3
				c0.2,1.4,0.3,2.2,0.2,2.2c-0.1,0-0.2-0.8-0.5-2.2c-0.3-1.4-0.6-3.2-1.1-5.3c-0.4-2.1-0.8-3.9-1.1-5.3
				C274.2,244.6,274,243.7,274.1,243.7z"/>
		</g>
	</g>
	<g class="st2">
		<g>
			<path class="st10" d="M265.3,242.6c0.1,0.1-1.3,2.9-3.2,6.4c-1.9,3.5-3.5,6.2-3.6,6.1s1.3-2.9,3.2-6.4
				C263.6,245.3,265.2,242.5,265.3,242.6z"/>
		</g>
	</g>
	<g class="st2">
		<g>
			<path class="st10" d="M264.1,211.8c0.1,0,1,3,2.1,6.7c1,3.7,1.8,6.8,1.7,6.8c-0.1,0-1-3-2.1-6.7
				C264.7,214.9,264,211.8,264.1,211.8z"/>
		</g>
	</g>
	<g class="st2">
		<g>
			<path class="st10" d="M262.2,233.1c0,0.1-2.3,0-5.1-0.3c-2.8-0.3-5.1-0.6-5-0.8c0-0.1,2.3,0,5.1,0.3
				C260,232.6,262.2,232.9,262.2,233.1z"/>
		</g>
	</g>
	<g class="st2">
		<g>
			<ellipse class="st10" cx="270.5" cy="234.9" rx="6.7" ry="7.4"/>
		</g>
		<g>
			<g>
				<path class="st11" d="M273.7,234.9c-0.1,0.1-1.3-1.2-3.3-1.4c-2-0.2-3.5,0.7-3.5,0.6c0,0,0.3-0.4,0.9-0.6
					c0.6-0.3,1.6-0.5,2.6-0.4c1.1,0.1,1.9,0.6,2.5,1C273.5,234.5,273.7,234.9,273.7,234.9z"/>
			</g>
		</g>
		<g>
			<g>
				<path class="st11" d="M271,230.6c0.1,0.1-0.7,1.5-1,3.5s0,3.6-0.1,3.6s-0.6-1.6-0.3-3.7C269.9,231.9,270.9,230.5,271,230.6z"/>
			</g>
		</g>
	</g>
</g>
<g>
	<g>
		<path class="st10" d="M333,245.9l-1.4-2.6l-2.1,0.3l-1.8-2.5l0.9-2.4l-2.4-1.7l-1.8,2l-2.3-0.5l-0.9-3l-2.8,0.3l-0.2,2.7l-2.1,1.2
			l-2.2-1.8l-2.3,1.8l1.2,2.8l-1.3,2.3l-2.5-0.1l-0.6,3.4l2.3,1l0.2,2.8l-2.4,1.5l1.2,2.9l2.5-0.4l1.7,2.1l-0.9,2.7l2.3,1.8l1.8-2.2
			l2.5,0.7l0.8,2.8l2.8-0.2l0.4-2.6l2.4-1.5l1.9,1.7l2.4-2l-1.2-2.4l1.2-2.4l2.5,0.2l0.8-3.1l-2.1-1.3l-0.3-2.8L333,245.9z
			 M323.4,255.1c-2.7,1.7-6.1,0.7-7.6-2.3s-0.6-6.8,2.1-8.5s6.1-0.7,7.6,2.3S326.1,253.4,323.4,255.1z"/>
	</g>
	<g>
		<g>
			<path class="st10" d="M323.1,248c0,0-0.2-0.2-0.5-0.6c-0.3-0.3-0.9-0.8-1.7-0.9c-0.8-0.1-1.8,0.2-2.5,1.1s-0.9,2.3-0.3,3.5
				s1.8,1.7,2.9,1.5c1-0.2,1.8-1,2.1-1.8c0.3-0.8,0.3-1.6,0.2-2.1C323.2,248.2,323.1,248,323.1,248s0.2,0.2,0.4,0.7
				c0.2,0.5,0.3,1.3-0.1,2.2c-0.3,0.9-1.1,1.9-2.3,2.1c-1.2,0.3-2.6-0.3-3.3-1.7c-0.7-1.3-0.4-3,0.3-4c0.8-1,1.9-1.3,2.8-1.2
				c0.9,0.2,1.5,0.7,1.8,1.1C323,247.7,323.1,248,323.1,248z"/>
		</g>
	</g>
	<g>
		<g>
			<path class="st10" d="M325.7,241.1c0.1,0.1-0.6,1.4-1.6,3.1c-1,1.6-1.8,2.9-1.9,2.8s0.6-1.4,1.6-3.1
				C324.8,242.3,325.6,241,325.7,241.1z"/>
		</g>
	</g>
	<g>
		<g>
			<path class="st10" d="M328.5,251.9c0,0.1-1.2-0.3-2.6-0.6c-1.4-0.4-2.6-0.6-2.6-0.8c0-0.1,1.2-0.1,2.7,0.3
				C327.4,251.2,328.5,251.8,328.5,251.9z"/>
		</g>
	</g>
	<g>
		<g>
			<path class="st10" d="M321.8,252.6c0.1,0,0.5,1.1,0.8,2.5s0.4,2.6,0.3,2.6s-0.4-1.1-0.7-2.5C321.9,253.8,321.7,252.7,321.8,252.6
				z"/>
		</g>
	</g>
	<g>
		<g>
			<path class="st10" d="M318.8,252.2c0.1,0.1-0.3,1.1-1,2.3c-0.6,1.2-1.2,2.1-1.3,2c-0.1-0.1,0.3-1.1,1-2.3
				C318.1,253.1,318.7,252.2,318.8,252.2z"/>
		</g>
	</g>
	<g>
		<g>
			<path class="st10" d="M318.3,241.7c0.1,0,0.5,1,0.8,2.3c0.4,1.3,0.6,2.4,0.4,2.4c-0.1,0-0.5-1-0.8-2.3
				C318.4,242.8,318.2,241.7,318.3,241.7z"/>
		</g>
	</g>
	<g>
		<g>
			<path class="st10" d="M317.7,249c0,0.1-0.8,0.1-1.8,0s-1.7-0.3-1.7-0.4s0.8-0.1,1.8,0C316.9,248.7,317.7,248.8,317.7,249z"/>
		</g>
	</g>
	<g>
		<g>
			<path class="st10" d="M322.5,248.3c0.6,1.2,0.3,2.8-0.8,3.5c-1.1,0.7-2.5,0.3-3.1-0.9c-0.6-1.2-0.3-2.8,0.8-3.5
				C320.5,246.7,321.9,247.1,322.5,248.3z"/>
		</g>
		<g>
			<g>
				<path class="st11" d="M321.6,249.6c-0.1,0.1-0.5-0.3-1.2-0.3c-0.6-0.1-1.1,0.2-1.2,0c-0.1-0.1,0.4-0.6,1.2-0.5
					C321.3,248.9,321.7,249.5,321.6,249.6z"/>
			</g>
		</g>
		<g>
			<g>
				<path class="st11" d="M320.7,248.1c0.1,0.1-0.1,0.6-0.2,1.2s-0.1,1.2-0.2,1.2s-0.4-0.5-0.2-1.3
					C320.2,248.5,320.6,248,320.7,248.1z"/>
			</g>
		</g>
	</g>
</g>
<g class="st0">
	<path class="st13" d="M438.2,313.6l1.3,2.4c1.4,2.7,3.6,4.8,6.3,6.3l2.4,1.3l-2.4,1.3c-2.6,1.5-4.8,3.6-6.3,6.3l-1.3,2.4l-1.3-2.4
		c-1.4-2.7-3.6-4.8-6.3-6.3l-2.4-1.3l2.4-1.3c2.6-1.5,4.8-3.6,6.3-6.3L438.2,313.6z"/>
	<g class="st2">
		<g>
			<polygon class="st12" points="325.2,472.4 325.1,468.1 333.3,454.7 342.6,468.1 342.6,472.4 			"/>
		</g>
		<g class="st14">
			<polygon points="325.2,472.4 325.1,468.1 333.3,454.7 342.6,468.1 342.6,472.4 			"/>
		</g>
		<g>
			<path class="st12" d="M293,456.2c0.2-0.1,41,0,41,0v3.8h-38.2L293,456.2z"/>
		</g>
		<g class="st14">
			<path d="M293,456.2c0.2-0.1,41,0,41,0v3.8h-38.2L293,456.2z"/>
		</g>
		<g>
			<polygon class="st12" points="290.9,454.7 281,468.5 281,502.2 300.1,502.2 300.1,467.7 			"/>
		</g>
		<g>
			<polygon class="st12" points="346,502.2 346,467.6 337.5,454.7 333.2,454.7 342.6,468.1 342.6,472.4 303.4,472.4 303.4,467 
				293.8,454.7 290.9,454.7 300.1,467.7 300.1,502.2 			"/>
		</g>
		<g>
			<g>
				<path class="st10" d="M345.8,475.2c0,0.1-10.3,0.2-23,0.2s-23-0.1-23-0.2c0-0.1,10.3-0.2,23-0.2S345.8,475.1,345.8,475.2z"/>
			</g>
		</g>
		<g>
			<g>
				<path class="st10" d="M345.6,500.2c0,0.1-10.3,0.2-23,0.2s-23-0.1-23-0.2c0-0.1,10.3-0.2,23-0.2
					C335.3,500,345.6,500.1,345.6,500.2z"/>
			</g>
		</g>
		<g class="st15">
			<polygon class="st16" points="290.9,454.7 281,468.5 281,502.2 300.1,502.2 300.1,467.7 			"/>
		</g>
	</g>
	<g class="st2">
		<path class="st6" d="M437.7,503.6v-1.3c0-3,2.2-5.4,4.8-5.4h40.8c2.7,0,4.8,2.4,4.8,5.4v1.3H437.7z"/>
		<path class="st6" d="M461.4,446.1l-14.8,50.8h31.5l-13.7-50.8C464,444.5,461.9,444.5,461.4,446.1z"/>
		<polygon class="st17" points="456.6,462.7 468.9,462.7 474.2,482.5 450.8,482.5 		"/>
	</g>
	<g class="st2">
		<g>
			<g>
				<path class="st12" d="M372.1,247.1c0,0-2.7-1.1-2.8-3c0-2,20.4-4.8,24.3,6.3c0,0-0.8,0.6-3.9,0.4"/>
			</g>
			<g class="st18">
				<path d="M372.1,247.1c0,0-2.7-1.1-2.8-3c0-2,20.4-4.8,24.3,6.3c0,0-0.8,0.6-3.9,0.4"/>
			</g>
			<g>
				<g>
					<g>
						<g>
							<g>
								<g>
									<path class="st19" d="M389.1,279.2l-12.5-1.1c-0.1-1.6,0-7.9,0-7.9s-5.2-0.9-5.3-6.7c-0.1-5.8,0.8-19,0.8-19l0,0
										c6-2.9,12.9-1.9,18.1,2.5l0.8,0.7L389.1,279.2z"/>
								</g>
							</g>
							<g>
								<g>
									<g>
										<path class="st10" d="M373.4,254.5c0.3-0.3,0.3-0.8,0.1-1.2c-0.3-0.3-0.8-0.4-1.1-0.1c-0.3,0.3-0.3,0.8-0.1,1.2
											C372.6,254.8,373.1,254.8,373.4,254.5z"/>
									</g>
								</g>
								<g>
									<g>
										<g>
											<path class="st10" d="M372.2,253.2c0.1,0.1,0.6-0.3,1.3-0.3c0.7,0,1.2,0.4,1.3,0.3c0,0,0-0.2-0.3-0.4
												c-0.2-0.2-0.6-0.4-1-0.4s-0.8,0.2-1,0.4C372.2,252.9,372.1,253.1,372.2,253.2z"/>
										</g>
									</g>
								</g>
							</g>
							<g>
								<g>
									<g>
										<path class="st10" d="M380.4,253.9c-0.4,0.2-0.5,0.8-0.2,1.2c0.2,0.4,0.7,0.5,1,0.3c0.4-0.2,0.5-0.8,0.2-1.2
											C381.2,253.7,380.7,253.6,380.4,253.9z"/>
									</g>
								</g>
								<g>
									<g>
										<g>
											<path class="st10" d="M379.9,253.9c0.1,0.1,0.6-0.3,1.3-0.3c0.7,0,1.2,0.4,1.3,0.3c0,0,0-0.2-0.3-0.4
												c-0.2-0.2-0.6-0.4-1-0.4s-0.8,0.2-1,0.4C380,253.6,379.9,253.8,379.9,253.9z"/>
										</g>
									</g>
								</g>
							</g>
							<g>
								<g>
									<g>
										<path class="st10" d="M377.1,260.4c0-0.1-0.4-0.2-1.2-0.3c-0.2,0-0.3-0.1-0.3-0.2s0-0.3,0.1-0.6c0.2-0.5,0.4-1.1,0.6-1.6
											c0.8-2.3,1.3-4.2,1.2-4.2c-0.1,0-0.8,1.8-1.6,4.1c-0.2,0.6-0.4,1.1-0.5,1.6c-0.1,0.2-0.2,0.5-0.1,0.9
											c0.1,0.2,0.2,0.3,0.3,0.3c0.1,0,0.2,0,0.3,0C376.6,260.5,377.1,260.5,377.1,260.4z"/>
									</g>
								</g>
							</g>
							<g>
								<g>
									<path class="st16" d="M379.4,261.3c-0.9,0.4-2.1,0.9-3.5,1.1c0,0,0.8,1.5,2.3,0.9C379.8,262.7,379.4,261.3,379.4,261.3z"/>
								</g>
							</g>
							<g>
								<g>
									<path class="st20" d="M376.6,270.1c0,0,3.3,0.3,6.8-2.1c0,0-1.6,4.1-6.8,3.6V270.1z"/>
								</g>
							</g>
						</g>
					</g>
				</g>
				<g>
					<path class="st10" d="M372.1,246c0,0,3,2,7.3,0c2.8-1.3,6-1.7,6.6-1.1c0.7,0.7,0.6,3.7,3.2,4.9c0,0-0.6,5.9,1.5,5.8
						c2.1,0,1.4-9.2,1.4-9.2l-5-3.2l-5.5-1.6l-5.4,0.4l-4.2,0.9L372.1,246L372.1,246z"/>
				</g>
				<g>
					<g>
						<g>
							<path class="st19" d="M390.5,253.7c0.1,0,3.6-1.2,3.4,2.8c-0.1,3.9-3.6,3-3.7,2.9C390.3,259.3,390.5,253.7,390.5,253.7z"/>
						</g>
					</g>
					<g>
						<g>
							<g>
								<path class="st20" d="M391.4,257.9c0,0,0.1,0.1,0.2,0.1c0.1,0.1,0.3,0.1,0.5,0c0.4-0.1,0.7-0.8,0.8-1.5c0-0.4,0-0.7-0.1-1
									s-0.3-0.5-0.4-0.5c-0.2-0.1-0.3,0.1-0.4,0.2s0,0.2,0,0.2s-0.1-0.1,0-0.2c0-0.1,0.1-0.2,0.1-0.2c0.1-0.1,0.2-0.1,0.3-0.1
									c0.3,0,0.5,0.3,0.6,0.6c0.1,0.3,0.2,0.7,0.2,1.1c0,0.8-0.4,1.5-0.9,1.7c-0.3,0.1-0.5,0-0.6-0.1
									C391.4,258,391.4,257.9,391.4,257.9z"/>
							</g>
						</g>
					</g>
				</g>
				<g>
					<g>
						<path class="st10" d="M392.9,241.5c0,0.1-0.6,0.1-1.1,0.3c-0.6,0.2-1,0.6-1.1,0.5s0.2-0.7,1-0.9
							C392.3,241.1,392.9,241.4,392.9,241.5z"/>
					</g>
				</g>
				<g>
					<g>
						<path class="st10" d="M390.9,239c0.1,0,0.3,0.8,0.1,1.9c-0.2,1.1-0.8,1.7-0.9,1.6s0.3-0.8,0.5-1.7
							C390.7,239.9,390.7,239,390.9,239z"/>
					</g>
				</g>
				<g>
					<g>
						<path class="st10" d="M375.6,251.9c-0.1,0.2-0.8,0-1.6,0c-0.8-0.1-1.5,0.1-1.6-0.2c-0.1-0.2,0.6-0.8,1.6-0.8
							C375.1,251,375.8,251.7,375.6,251.9z"/>
					</g>
				</g>
				<g>
					<g>
						<path class="st10" d="M383.6,251.9c-0.1,0.2-0.8,0-1.6,0c-0.8-0.1-1.5,0.1-1.6-0.2c-0.1-0.2,0.6-0.8,1.6-0.8
							C383.1,251,383.7,251.7,383.6,251.9z"/>
					</g>
				</g>
			</g>
			<g>
				<path class="st12" d="M380.6,243.2c-9.3-1.1-11.1,0.7-11.2,0.8c-0.3-0.4-0.4-0.7-0.5-1c-0.3-3.1,3-3.9,3-3.9
					c2.1-10.6,10.7-9.5,10.7-9.5v-0.1c0.2-0.9,1-1.5,1.8-1.4l1.3,0.3c0.8,0.2,1.4,1.1,1.2,2l0,0c10.1,3.7,6.7,14.1,6.7,14.1l1.5,2
					c1.3,2.9-1.5,3.8-1.5,3.8S390.2,244.4,380.6,243.2z"/>
			</g>
			<g class="st18">
				<g>
					<path d="M385.3,239.6c-0.1,0,0.2-2.1,0.7-4.6s1-4.5,1.1-4.5s-0.2,2.1-0.7,4.6C385.9,237.7,385.4,239.7,385.3,239.6z"/>
				</g>
			</g>
			<g class="st18">
				<g>
					<path d="M380.3,238.2c-0.1,0,0.3-2,0.9-4.4s1.2-4.3,1.3-4.3c0.1,0-0.3,2-0.9,4.4C381,236.4,380.4,238.3,380.3,238.2z"/>
				</g>
			</g>
			<g class="st18">
				<g>
					<path d="M372.3,239.5c0,0,0.3-0.2,0.8-0.3c0.5-0.2,1.3-0.4,2.3-0.5c2-0.3,4.8-0.3,7.8,0.6c3,0.8,5.5,2.1,7.2,3.2
						c0.9,0.5,1.5,1,2,1.4s0.7,0.6,0.7,0.6c0,0.1-1.1-0.7-2.8-1.7c-1.7-1-4.2-2.3-7.2-3.1c-2.9-0.8-5.7-0.9-7.6-0.7
						C373.5,239.2,372.3,239.6,372.3,239.5z"/>
				</g>
			</g>
			<g class="st21">
				<g>
					<path class="st16" d="M384.8,241.5c0-0.1,0.7,0,1.7,0.4c1,0.3,2.4,0.9,3.8,1.7c1.4,0.8,2.6,1.8,3.3,2.6
						c0.8,0.8,1.2,1.3,1.2,1.4c-0.1,0.1-1.9-1.9-4.7-3.5C387.3,242.3,384.8,241.6,384.8,241.5z"/>
				</g>
			</g>
			<g class="st21">
				<g>
					<path class="st16" d="M386.4,231.1c-0.1-0.1,0-0.5-0.1-1.1s-0.3-1-0.3-1.1c0.1-0.1,0.5,0.3,0.7,1
						C386.8,230.6,386.5,231.1,386.4,231.1z"/>
				</g>
			</g>
			<g class="st21">
				<g>
					<path class="st16" d="M392.8,242.9c-0.6-0.1-0.4-3.1-1.8-6.1s-3.8-4.5-3.5-5.1c0.1-0.3,0.9-0.3,2,0.3c1.1,0.6,2.5,1.8,3.4,3.7
						c0.9,1.9,1.1,3.9,0.9,5.2C393.6,242.3,393.1,243,392.8,242.9z"/>
				</g>
			</g>
		</g>
		<g>
			<path class="st19" d="M318,317c0,0-6.2-3.5-7.2-5.1c-1.1-1.6-1.5-7.2-1.5-7.2l10.5,4.4L318,317z"/>
			<path class="st19" d="M363.9,302.3c-0.4,0.1-7.2,17-12.6,17.1c-5.5,0.1-33.3-2.4-33.3-2.4l1.7-8l26.7-1l8.7-13.1L363.9,302.3z"/>
		</g>
		<g>
			<g>
				<path class="st12" d="M412.9,494.6l1.2,5.8c0,0,8.5,12.2,11.1,11.6c1.7-0.4-0.4-3.6-3.6-12.9l-0.7-3.8L412.9,494.6z"/>
			</g>
			<g>
				<g>
					<path class="st10" d="M425.6,510.2c0,0,0,0.1-0.1,0.2c-0.1,0.1-0.2,0.3-0.4,0.4c-0.2,0.1-0.4,0.2-0.8,0.2c-0.3,0-0.6-0.2-1-0.4
						c-1.2-1-2.7-2.6-4.3-4.4c-1.6-1.8-2.9-3.6-3.8-4.9c-0.5-0.7-0.8-1.2-1-1.6c-0.1-0.2-0.2-0.3-0.3-0.4c-0.1-0.1-0.1-0.2-0.1-0.2
						s0,0,0.1,0.1s0.2,0.3,0.3,0.4c0.3,0.5,0.7,1,1.1,1.6c0.9,1.3,2.3,3.1,3.8,4.9c1.6,1.8,3.1,3.4,4.2,4.4c0.6,0.5,1.3,0.5,1.6,0.3
						C425.5,510.4,425.6,510.2,425.6,510.2z"/>
				</g>
			</g>
			<g>
				<g>
					<path class="st10" d="M424.4,506.2c0,0-0.3,0-0.7,0c-0.4,0.1-1,0.3-1.5,0.6c-0.6,0.4-0.9,0.9-1.1,1.3c-0.2,0.4-0.3,0.7-0.3,0.7
						s0-0.3,0.2-0.8c0.2-0.4,0.6-1,1.2-1.4s1.2-0.6,1.6-0.6C424.2,506.1,424.4,506.2,424.4,506.2z"/>
				</g>
			</g>
			<g>
				<g>
					<path class="st10" d="M416.4,503.4c0,0,0.1-0.4,0.2-1.1c0.1-0.7,0-1.6-0.4-2.5s-1.1-1.5-1.6-1.8s-0.9-0.3-0.9-0.4
						c0,0,0.1,0,0.3,0c0.2,0,0.4,0.1,0.7,0.2c0.6,0.3,1.3,0.9,1.7,1.9c0.4,0.9,0.5,2,0.4,2.6c0,0.3-0.1,0.6-0.2,0.8
						C416.4,503.3,416.4,503.4,416.4,503.4z"/>
				</g>
			</g>
			<g>
				<g>
					<path class="st10" d="M413.5,495.5c0,0,0.3,0.8,0.5,1.8s0.3,1.8,0.3,1.8c-0.1,0-0.3-0.8-0.4-1.8
						C413.6,496.4,413.4,495.6,413.5,495.5z"/>
				</g>
			</g>
			<g>
				<g>
					<path class="st10" d="M421.8,499.9c0,0.1-0.5,0-1.1,0.2c-0.6,0.1-1,0.4-1,0.3c0,0,0.4-0.4,1-0.5
						C421.3,499.8,421.8,499.9,421.8,499.9z"/>
				</g>
			</g>
			<g>
				<g>
					<path class="st10" d="M422,500.9c0,0.1-0.4,0-0.9,0.1s-0.8,0.4-0.8,0.3c0,0,0.3-0.4,0.8-0.5S422,500.8,422,500.9z"/>
				</g>
			</g>
			<g>
				<g>
					<path class="st10" d="M422.7,502.1c0,0.1-0.4-0.1-0.9,0s-0.8,0.4-0.8,0.4s0.3-0.5,0.8-0.6C422.3,501.8,422.7,502.1,422.7,502.1
						z"/>
				</g>
			</g>
			<g>
				<g>
					<path class="st10" d="M421.2,499.5c0,0-0.1,0-0.3,0c-0.2,0-0.4-0.1-0.8-0.2c-0.3-0.1-0.7-0.3-1.1-0.5c-0.2-0.1-0.4-0.2-0.6-0.4
						s-0.4-0.4-0.4-0.7c0-0.4,0.4-0.5,0.6-0.5c0.3,0.1,0.4,0.3,0.6,0.4c0.3,0.3,0.6,0.7,0.8,0.9c0.2,0.3,0.4,0.5,0.5,0.7
						s0.2,0.3,0.1,0.3c0,0-0.3-0.3-0.7-0.9c-0.2-0.3-0.5-0.6-0.8-0.9c-0.2-0.2-0.3-0.3-0.5-0.4c-0.2-0.1-0.4,0.1-0.4,0.3
						s0.2,0.4,0.4,0.6c0.2,0.1,0.4,0.3,0.6,0.4c0.4,0.2,0.7,0.4,1,0.5C420.8,499.4,421.2,499.5,421.2,499.5z"/>
				</g>
			</g>
			<g>
				<g>
					<path class="st10" d="M420.8,499.4c0,0,0-0.1,0-0.3s0-0.5,0.1-0.8c0-0.3,0.1-0.7,0.3-1.1c0.1-0.2,0.2-0.4,0.3-0.6
						c0.1-0.2,0.4-0.4,0.7-0.2c0.3,0.2,0.3,0.5,0.2,0.8c0,0.2-0.1,0.5-0.2,0.7c-0.2,0.4-0.4,0.7-0.6,1c-0.2,0.2-0.4,0.4-0.5,0.5
						C420.9,499.3,420.8,499.4,420.8,499.4s0.3-0.3,0.7-0.7c0.2-0.2,0.4-0.6,0.6-0.9c0.1-0.2,0.1-0.4,0.2-0.6c0-0.2,0-0.5-0.2-0.6
						s-0.3,0-0.5,0.2c-0.1,0.2-0.2,0.4-0.3,0.6c-0.2,0.4-0.2,0.8-0.3,1.1C420.8,499,420.8,499.4,420.8,499.4z"/>
				</g>
			</g>
			<g class="st22">
				<path d="M414.2,500.3l-0.6-2.8c0,0,2.1,0.4,2.6,2.2c0.5,1.7,0.4,3,0.4,3l4.5,5.4c0,0,1.1-2.5,3.2-1.9c0,0,1.6,3.9,1.6,4.9
					c-0.1,1.1-1.1,0.9-1.5,0.7c-0.2-0.1-2.1-1.3-4-3.5C418,505.5,415.3,502,414.2,500.3z"/>
			</g>
		</g>
		<g>
			<g>
				<g>
					<g>
						<g>
							<path class="st12" d="M370.7,497.5v-7.7l13-0.2l0.2,11.2l-0.8,0.1c-3.6,0.3-18.2,1.1-20.6,0.3
								C359.8,500.4,370.7,497.5,370.7,497.5z"/>
						</g>
					</g>
					<g class="st22">
						<g>
							<path d="M379.1,500.8c0.2-1.2,0.8-2.3,1.6-3.1c0.9-0.8,1.9-1.2,3-1.1v4L379.1,500.8z"/>
						</g>
					</g>
				</g>
				<g>
					<g>
						<path class="st23" d="M365.4,499.1c0,0-3.8,1.3-3.4,2c0.5,0.7,15.3,0.5,21.8-0.2v-0.3l-17.3,0.4
							C366.5,500.9,366.1,499.1,365.4,499.1z"/>
					</g>
				</g>
				<g>
					<g>
						<g>
							<path class="st10" d="M384,500.5c0,0-0.1,0-0.2,0c-0.2,0-0.4,0-0.6,0.1c-0.6,0-1.4,0.1-2.4,0.1c-2,0.1-4.7,0.2-7.8,0.3
								c-3,0-5.8,0-7.8,0c-0.9,0-1.7-0.1-2.4-0.1c-0.2,0-0.4,0-0.6,0c-0.1,0-0.2,0-0.2,0s0.1,0,0.2,0c0.2,0,0.4,0,0.6,0
								c0.6,0,1.4,0,2.4,0c2,0,4.7,0,7.8,0c3,0,5.8-0.1,7.8-0.2c0.9,0,1.7-0.1,2.4-0.1c0.2,0,0.4,0,0.6,0
								C383.9,500.5,384,500.5,384,500.5z"/>
						</g>
					</g>
				</g>
				<g>
					<g>
						<g>
							<path class="st10" d="M366.5,501.2c0,0-0.1-0.6-0.5-1.2c-0.4-0.6-0.8-0.9-0.8-1c0,0,0.6,0.2,0.9,0.9
								C366.6,500.5,366.6,501.2,366.5,501.2z"/>
						</g>
					</g>
				</g>
				<g>
					<g>
						<g>
							<path class="st10" d="M370.3,499c0,0-0.2-0.2-0.4-0.5c-0.2-0.3-0.3-0.6-0.3-0.6s0.2,0.2,0.4,0.5S370.4,498.9,370.3,499z"/>
						</g>
					</g>
				</g>
				<g>
					<g>
						<g>
							<path class="st10" d="M371.4,498.3c0,0-0.2-0.1-0.5-0.3c-0.2-0.2-0.4-0.4-0.4-0.5c0,0,0.2,0.1,0.5,0.3
								C371.3,498.1,371.4,498.3,371.4,498.3z"/>
						</g>
					</g>
				</g>
				<g>
					<g>
						<g>
							<path class="st10" d="M372,497c0,0-0.3,0.1-0.7,0.1c-0.4,0-0.7,0-0.7-0.1c0,0,0.3-0.1,0.7-0.1S372,496.9,372,497z"/>
						</g>
					</g>
				</g>
				<g>
					<g>
						<g>
							<path class="st10" d="M372.3,496c0,0-0.3,0.2-0.8,0.3c-0.4,0-0.8-0.1-0.8-0.1s0.3,0,0.8-0.1C371.9,496,372.2,496,372.3,496z"
								/>
						</g>
					</g>
				</g>
				<g>
					<g>
						<g>
							<path class="st10" d="M369.9,497.7c0,0-0.3,0.1-0.8,0c-0.3,0-0.6-0.1-0.9-0.2c-0.2-0.1-0.3-0.1-0.5-0.2
								c-0.1-0.1-0.2-0.1-0.2-0.3c0-0.1,0-0.3,0.1-0.4c0.8-0.5,1.6,0,1.9,0.5C369.7,497.3,369.7,497.6,369.9,497.7
								c-0.1,0.2-0.1,0.2-0.1,0.2s-0.1-0.4-0.4-0.8c-0.2-0.2-0.4-0.4-0.7-0.5c-0.3-0.1-0.7-0.1-1,0.1c-0.1,0.1-0.1,0.3,0.1,0.4
								c0.1,0.1,0.3,0.2,0.5,0.2c0.3,0.1,0.6,0.2,0.9,0.2C369.6,497.7,369.9,497.7,369.9,497.7z"/>
						</g>
					</g>
				</g>
				<g>
					<g>
						<g>
							<path class="st10" d="M369.7,497.8c0,0-0.1-0.2-0.1-0.6c0-0.2,0.1-0.4,0.2-0.7c0.1-0.2,0.3-0.5,0.7-0.5
								c0.2,0,0.3,0.3,0.3,0.4c0,0.2-0.1,0.3-0.1,0.4c-0.1,0.2-0.3,0.4-0.4,0.6C370,497.7,369.8,497.8,369.7,497.8
								c0.1,0,0.2-0.2,0.5-0.5c0.1-0.1,0.2-0.3,0.3-0.6c0.1-0.2,0.2-0.5,0-0.6c-0.2,0-0.4,0.2-0.5,0.4s-0.2,0.4-0.2,0.6
								C369.6,497.5,369.7,497.8,369.7,497.8z"/>
						</g>
					</g>
				</g>
				<g>
					<g>
						<g>
							<path class="st10" d="M383.7,496.6c0,0-0.4,0-1,0.1s-1.4,0.4-2.1,1s-1.1,1.5-1.3,2.1c-0.2,0.6-0.2,1-0.2,1s0-0.1,0-0.3
								s0-0.5,0.1-0.8c0.2-0.6,0.6-1.5,1.3-2.2c0.7-0.7,1.6-0.9,2.2-1c0.3,0,0.5,0,0.7,0C383.6,496.6,383.7,496.6,383.7,496.6z"/>
						</g>
					</g>
				</g>
				<g>
					<g>
						<g>
							<path class="st10" d="M382.3,490.6c0,0,0.1,1.3,0.1,3c0,1.6,0,3,0,3s-0.1-1.3-0.1-3C382.2,491.9,382.2,490.6,382.3,490.6z"/>
						</g>
					</g>
				</g>
				<g>
					<g>
						<g>
							<path class="st10" d="M377.5,499.4c0,0-0.8,0.2-1.9,0.2s-1.9-0.1-1.9-0.1c0-0.1,0.9,0,1.9,0
								C376.6,499.5,377.5,499.4,377.5,499.4z"/>
						</g>
					</g>
				</g>
				<g>
					<g>
						<g>
							<path class="st10" d="M380,499.4c0,0-0.1,0.2-0.2,0.4s-0.1,0.4-0.2,0.4c0,0-0.1-0.2,0-0.5C379.8,499.5,380,499.4,380,499.4z"
								/>
						</g>
					</g>
				</g>
				<g>
					<g>
						<g>
							<path class="st10" d="M381,498.1c0,0-0.1,0.2-0.2,0.3c-0.1,0.2-0.3,0.2-0.3,0.2s0.1-0.2,0.2-0.3
								C380.8,498.1,380.9,498,381,498.1z"/>
						</g>
					</g>
				</g>
				<g>
					<g>
						<g>
							<path class="st10" d="M382.3,497.4c0,0-0.2,0-0.4,0.1c-0.2,0.1-0.3,0.2-0.4,0.2c0,0,0.1-0.2,0.3-0.3
								C382.1,497.3,382.3,497.4,382.3,497.4z"/>
						</g>
					</g>
				</g>
				<g>
					<g>
						<g>
							<path class="st10" d="M383.3,497.1c0,0-0.1,0.1-0.2,0.2s-0.2,0.1-0.2,0c0,0,0.1-0.1,0.2-0.2
								C383.2,497.1,383.3,497.1,383.3,497.1z"/>
						</g>
					</g>
				</g>
			</g>
		</g>
		<path class="st12" d="M401.1,346.8l-39.2,2.5c-0.1-4.8,1.5-43.1,1.5-43.1l-2.2,4.5L350,299.6l9.8-14.7c3.1-4.7,7.8-7.7,13-8.5
			c1.5-0.2,2.7-0.3,3.4-0.4c4.4,1.5,8.9,1.5,13.3,0l0,0c2.1,0.1,3.8,0.5,5.5,1.2c3.4,1.4,6.3,3.5,8.8,6.3l0,0l11.7,21.9l-14.2,9.9
			l-2.1-6.9L401.1,346.8z"/>
		<g>
			<g>
				<g>
					<polyline class="st10" points="361.9,344.8 368,494.2 388.2,494.6 384.8,369.5 407.5,495.6 426.7,495.6 401.1,344.8 					"/>
				</g>
				<g>
					<polygon class="st11" points="406.5,493.6 407,495.8 426.7,496.1 426.4,492.6 					"/>
				</g>
				<g>
					<g>
						<g>
							<path class="st11" d="M384.7,493.3c0.1,0,0.2,0.3,0.2,0.7s-0.1,0.7-0.2,0.7s-0.2-0.3-0.2-0.7S384.6,493.3,384.7,493.3z"/>
						</g>
					</g>
					<g>
						<g>
							<path class="st11" d="M384.5,487.9c0.1,0,0.2,0.6,0.3,1.3c0,0.7,0,1.4-0.2,1.4c-0.1,0-0.2-0.6-0.3-1.3
								C384.3,488.5,384.4,487.9,384.5,487.9z"/>
						</g>
					</g>
					<g>
						<g>
							<path class="st11" d="M384.3,482.5c0.1,0,0.2,0.6,0.2,1.3s-0.1,1.4-0.2,1.4s-0.2-0.6-0.2-1.3
								C384.1,483.1,384.2,482.5,384.3,482.5z"/>
						</g>
					</g>
					<g>
						<g>
							<path class="st11" d="M384.2,477.1c0.1,0,0.2,0.6,0.2,1.3s-0.1,1.4-0.2,1.4s-0.2-0.6-0.2-1.3
								C384,477.7,384.1,477.1,384.2,477.1z"/>
						</g>
					</g>
					<g>
						<g>
							<path class="st11" d="M384.1,471.7c0.1,0,0.2,0.6,0.2,1.3s-0.1,1.4-0.2,1.4s-0.2-0.6-0.2-1.3
								C383.9,472.3,384,471.7,384.1,471.7z"/>
						</g>
					</g>
					<g>
						<g>
							<path class="st11" d="M384,466.3c0.1,0,0.2,0.6,0.2,1.3s-0.1,1.4-0.2,1.4s-0.2-0.6-0.2-1.3
								C383.8,466.9,383.8,466.3,384,466.3z"/>
						</g>
					</g>
					<g>
						<g>
							<path class="st11" d="M383.8,460.8c0.1,0,0.2,0.6,0.3,1.3c0,0.7,0,1.4-0.2,1.4c-0.1,0-0.2-0.6-0.3-1.3
								C383.6,461.5,383.7,460.8,383.8,460.8z"/>
						</g>
					</g>
					<g>
						<g>
							<path class="st11" d="M383.6,455.4c0.1,0,0.2,0.6,0.3,1.3c0,0.7,0,1.4-0.2,1.4c-0.1,0-0.2-0.6-0.3-1.3
								C383.4,456,383.5,455.4,383.6,455.4z"/>
						</g>
					</g>
					<g>
						<g>
							<path class="st11" d="M383.4,450c0.1,0,0.2,0.6,0.3,1.3c0,0.7-0.1,1.4-0.2,1.4s-0.2-0.6-0.3-1.3
								C383.2,450.6,383.3,450,383.4,450z"/>
						</g>
					</g>
					<g>
						<g>
							<path class="st11" d="M383.2,444.6c0.1,0,0.2,0.6,0.2,1.3s-0.1,1.4-0.2,1.4s-0.2-0.6-0.2-1.3
								C383,445.2,383.1,444.6,383.2,444.6z"/>
						</g>
					</g>
					<g>
						<g>
							<path class="st11" d="M383.1,439.2c0.1,0,0.2,0.6,0.2,1.3s-0.1,1.4-0.2,1.4s-0.2-0.6-0.2-1.3
								C382.9,439.8,383,439.2,383.1,439.2z"/>
						</g>
					</g>
					<g>
						<g>
							<path class="st11" d="M383,433.8c0.1,0,0.2,0.6,0.2,1.3s-0.1,1.4-0.2,1.4s-0.2-0.6-0.2-1.3
								C382.8,434.4,382.9,433.8,383,433.8z"/>
						</g>
					</g>
					<g>
						<g>
							<path class="st11" d="M382.9,428.4c0.1,0,0.2,0.6,0.2,1.4c0,0.7-0.1,1.4-0.2,1.4s-0.2-0.6-0.2-1.4
								C382.7,429,382.8,428.4,382.9,428.4z"/>
						</g>
					</g>
					<g>
						<g>
							<path class="st11" d="M382.9,422.9c0.1,0,0.2,0.6,0.2,1.4c0,0.7-0.1,1.4-0.2,1.4s-0.2-0.6-0.2-1.4
								C382.7,423.5,382.7,422.9,382.9,422.9z"/>
						</g>
					</g>
					<g>
						<g>
							<path class="st11" d="M382.8,417.5c0.1,0,0.2,0.6,0.2,1.4c0,0.7-0.1,1.4-0.2,1.4s-0.2-0.6-0.2-1.4
								C382.6,418.1,382.7,417.5,382.8,417.5z"/>
						</g>
					</g>
					<g>
						<g>
							<path class="st11" d="M382.8,412.1c0.1,0,0.2,0.6,0.2,1.4c0,0.7-0.1,1.4-0.2,1.4s-0.2-0.6-0.2-1.4
								C382.6,412.7,382.7,412.1,382.8,412.1z"/>
						</g>
					</g>
					<g>
						<g>
							<path class="st11" d="M382.9,406.7c0.1,0,0.2,0.6,0.2,1.4c0,0.7-0.1,1.4-0.2,1.4s-0.2-0.6-0.2-1.4
								C382.6,407.3,382.7,406.7,382.9,406.7z"/>
						</g>
					</g>
					<g>
						<g>
							<path class="st11" d="M382.9,401.3c0.1,0,0.2,0.6,0.2,1.4c0,0.7-0.1,1.4-0.2,1.4s-0.2-0.6-0.2-1.4
								C382.7,401.9,382.8,401.3,382.9,401.3z"/>
						</g>
					</g>
					<g>
						<g>
							<path class="st11" d="M383,395.8c0.1,0,0.2,0.6,0.2,1.4c0,0.7-0.1,1.4-0.2,1.3c-0.1,0-0.2-0.6-0.2-1.4
								C382.8,396.5,382.9,395.8,383,395.8z"/>
						</g>
					</g>
					<g>
						<g>
							<path class="st11" d="M383.1,390.4c0.1,0,0.2,0.6,0.2,1.4c0,0.7-0.1,1.4-0.2,1.4s-0.2-0.6-0.2-1.4S383,390.4,383.1,390.4z"/>
						</g>
					</g>
					<g>
						<g>
							<path class="st11" d="M383.2,385c0.1,0,0.2,0.6,0.2,1.4c0,0.7-0.1,1.4-0.3,1.3c-0.1,0-0.2-0.6-0.2-1.4
								C383,385.6,383.1,385,383.2,385z"/>
						</g>
					</g>
					<g>
						<g>
							<path class="st11" d="M383.5,379.6c0.1,0,0.2,0.6,0.1,1.4c0,0.7-0.2,1.3-0.3,1.3c-0.1,0-0.2-0.6-0.1-1.4
								C383.2,380.2,383.4,379.6,383.5,379.6z"/>
						</g>
					</g>
					<g>
						<g>
							<path class="st11" d="M383.9,374.2c0.1,0,0.2,0.6,0.1,1.4c-0.1,0.7-0.2,1.3-0.3,1.3s-0.2-0.6-0.1-1.4
								C383.7,374.8,383.8,374.2,383.9,374.2z"/>
						</g>
					</g>
					<g>
						<g>
							<path class="st11" d="M384.4,370.2c0.1,0,0.2,0.3,0.1,0.7c0,0.4-0.2,0.6-0.3,0.6c-0.1,0-0.2-0.3-0.1-0.7
								C384.1,370.5,384.3,370.2,384.4,370.2z"/>
						</g>
					</g>
				</g>
				<g>
					<polygon class="st11" points="367.4,494.9 388.8,495.3 388.6,491.3 367.4,491.4 					"/>
				</g>
			</g>
			<g>
				<polygon class="st10" points="391.3,349.3 389.2,303.6 365.7,303.6 361.8,350.6 				"/>
			</g>
			<g>
				<path class="st10" d="M396.5,277.6c0,0-9.5,2.8-9.7,27.7H383c0,0-1-20.9,9.4-29.1C392.3,276.2,395.3,275.4,396.5,277.6z"/>
			</g>
			<g>
				<path class="st10" d="M376.3,275.9c0,0-6.8,3.6-6.9,28.5h-3.3c0,0-0.3-23.3,6.1-27.9C372.2,276.4,374.1,274.9,376.3,275.9z"/>
			</g>
			<g>
				<g>
					<g>
						<path class="st11" d="M422.7,491.4c0.1,0,0.2,0.3,0.3,0.6c0.1,0.4,0,0.7-0.1,0.7s-0.2-0.3-0.3-0.6
							C422.5,491.7,422.6,491.4,422.7,491.4z"/>
					</g>
				</g>
				<g>
					<g>
						<path class="st11" d="M421.9,486.2c0.1,0,0.3,0.5,0.4,1.3c0.1,0.7,0.1,1.3,0,1.3s-0.3-0.5-0.4-1.3
							C421.8,486.8,421.8,486.2,421.9,486.2z"/>
					</g>
				</g>
				<g>
					<g>
						<path class="st11" d="M421.2,481c0.1,0,0.3,0.5,0.4,1.3c0.1,0.7,0.1,1.3,0,1.3s-0.3-0.5-0.4-1.3C421,481.6,421,481,421.2,481z
							"/>
					</g>
				</g>
				<g>
					<g>
						<path class="st11" d="M420.4,475.8c0.1,0,0.3,0.5,0.4,1.3c0.1,0.7,0.1,1.3,0,1.3s-0.3-0.5-0.4-1.3
							C420.3,476.4,420.3,475.8,420.4,475.8z"/>
					</g>
				</g>
				<g>
					<g>
						<path class="st11" d="M419.6,470.6c0.1,0,0.3,0.5,0.4,1.3c0.1,0.7,0.1,1.3,0,1.3s-0.3-0.5-0.4-1.3
							C419.5,471.2,419.5,470.6,419.6,470.6z"/>
					</g>
				</g>
				<g>
					<g>
						<path class="st11" d="M418.8,465.4c0.1,0,0.3,0.5,0.4,1.3c0.1,0.7,0.1,1.3,0,1.3s-0.3-0.5-0.4-1.3
							C418.7,466.1,418.7,465.5,418.8,465.4z"/>
					</g>
				</g>
				<g>
					<g>
						<path class="st11" d="M418,460.3c0.1,0,0.3,0.5,0.4,1.3c0.1,0.7,0.1,1.3,0,1.3s-0.3-0.5-0.4-1.3
							C417.9,460.9,417.9,460.3,418,460.3z"/>
					</g>
				</g>
				<g>
					<g>
						<path class="st11" d="M417.2,455.1c0.1,0,0.3,0.5,0.4,1.3c0.1,0.7,0.1,1.3,0,1.3s-0.3-0.5-0.4-1.3
							C417.1,455.7,417.1,455.1,417.2,455.1z"/>
					</g>
				</g>
				<g>
					<g>
						<path class="st11" d="M416.4,449.9c0.1,0,0.3,0.5,0.4,1.3c0.1,0.7,0.1,1.3,0,1.3s-0.3-0.5-0.4-1.3
							C416.3,450.5,416.3,449.9,416.4,449.9z"/>
					</g>
				</g>
				<g>
					<g>
						<path class="st11" d="M415.5,444.7c0.1,0,0.3,0.5,0.4,1.3c0.1,0.7,0.1,1.3,0,1.3s-0.3-0.5-0.4-1.3
							C415.4,445.3,415.4,444.7,415.5,444.7z"/>
					</g>
				</g>
				<g>
					<g>
						<path class="st11" d="M414.7,439.5c0.1,0,0.3,0.5,0.4,1.3c0.1,0.7,0.1,1.3,0,1.3s-0.3-0.5-0.4-1.3
							C414.6,440.1,414.6,439.5,414.7,439.5z"/>
					</g>
				</g>
				<g>
					<g>
						<path class="st11" d="M413.9,434.3c0.1,0,0.3,0.5,0.4,1.3c0.1,0.7,0.1,1.3,0,1.3s-0.3-0.5-0.4-1.3
							C413.8,435,413.8,434.4,413.9,434.3z"/>
					</g>
				</g>
				<g>
					<g>
						<path class="st11" d="M413,429.2c0.1,0,0.3,0.5,0.4,1.3c0.1,0.7,0.1,1.3,0,1.3s-0.3-0.5-0.4-1.3
							C412.9,429.8,412.9,429.2,413,429.2z"/>
					</g>
				</g>
				<g>
					<g>
						<path class="st11" d="M412.2,424c0.1,0,0.3,0.5,0.4,1.3c0.1,0.7,0.1,1.3,0,1.3s-0.3-0.5-0.4-1.3
							C412.1,424.6,412.1,424,412.2,424z"/>
					</g>
				</g>
				<g>
					<g>
						<path class="st11" d="M411.3,418.8c0.1,0,0.3,0.5,0.4,1.3c0.1,0.7,0.1,1.3,0,1.3s-0.3-0.5-0.4-1.3
							C411.2,419.4,411.2,418.8,411.3,418.8z"/>
					</g>
				</g>
				<g>
					<g>
						<path class="st11" d="M410.5,413.6c0.1,0,0.3,0.5,0.4,1.3c0.1,0.7,0.1,1.3,0,1.3s-0.3-0.5-0.4-1.3
							C410.4,414.3,410.3,413.7,410.5,413.6z"/>
					</g>
				</g>
				<g>
					<g>
						<path class="st11" d="M409.6,408.5c0.1,0,0.3,0.5,0.4,1.2s0.1,1.3,0,1.3s-0.3-0.5-0.4-1.3
							C409.5,409.1,409.5,408.5,409.6,408.5z"/>
					</g>
				</g>
				<g>
					<g>
						<path class="st11" d="M408.7,403.3c0.1,0,0.3,0.5,0.4,1.2s0.1,1.3,0,1.3s-0.3-0.5-0.4-1.2
							C408.6,403.9,408.6,403.3,408.7,403.3z"/>
					</g>
				</g>
				<g>
					<g>
						<path class="st11" d="M407.8,398.1c0.1,0,0.3,0.5,0.4,1.2s0.1,1.3,0,1.3s-0.3-0.5-0.4-1.2
							C407.7,398.7,407.7,398.2,407.8,398.1z"/>
					</g>
				</g>
				<g>
					<g>
						<path class="st11" d="M406.9,393c0.1,0,0.3,0.5,0.4,1.2s0.1,1.3,0,1.3s-0.3-0.5-0.4-1.2S406.8,393,406.9,393z"/>
					</g>
				</g>
				<g>
					<g>
						<path class="st11" d="M406,387.8c0.1,0,0.3,0.5,0.4,1.2s0.1,1.3,0,1.3s-0.3-0.5-0.4-1.2C405.9,388.4,405.9,387.8,406,387.8z"
							/>
					</g>
				</g>
				<g>
					<g>
						<path class="st11" d="M405.1,382.6c0.1,0,0.3,0.5,0.4,1.2s0.1,1.3,0,1.3s-0.3-0.5-0.4-1.2C405,383.3,405,382.7,405.1,382.6z"
							/>
					</g>
				</g>
				<g>
					<g>
						<path class="st11" d="M404.2,377.5c0.1,0,0.3,0.5,0.4,1.2s0.1,1.3,0,1.3s-0.3-0.5-0.4-1.2S404.1,377.5,404.2,377.5z"/>
					</g>
				</g>
				<g>
					<g>
						<path class="st11" d="M403.3,372.3c0.1,0,0.3,0.5,0.4,1.2s0.1,1.3,0,1.3s-0.3-0.5-0.4-1.2
							C403.2,372.9,403.2,372.3,403.3,372.3z"/>
					</g>
				</g>
				<g>
					<g>
						<path class="st11" d="M402.3,367.1c0.1,0,0.3,0.5,0.4,1.2s0.1,1.3,0,1.3s-0.3-0.5-0.4-1.2
							C402.2,367.8,402.2,367.2,402.3,367.1z"/>
					</g>
				</g>
				<g>
					<g>
						<path class="st11" d="M401.4,362c0.1,0,0.3,0.5,0.4,1.2s0.1,1.3,0,1.3s-0.3-0.5-0.4-1.2C401.3,362.6,401.3,362,401.4,362z"/>
					</g>
				</g>
				<g>
					<g>
						<path class="st11" d="M400.7,358.1c0.1,0,0.3,0.2,0.3,0.6c0.1,0.4,0,0.7-0.1,0.7s-0.3-0.2-0.3-0.6
							C400.5,358.4,400.6,358.1,400.7,358.1z"/>
					</g>
				</g>
			</g>
			<g>
				<g>
					<path class="st11" d="M369.4,303.1c0,0,0.2,0.5,0.2,1.3c0,0.4,0,0.9-0.3,1.5c-0.2,0.5-0.7,1.1-1.3,1.2
						c-0.7,0.1-1.2-0.3-1.6-0.7c-0.4-0.5-0.5-1-0.5-1.4c0-0.9,0.2-1.3,0.3-1.3c0.1,0-0.1,0.5,0,1.3c0,0.4,0.2,0.8,0.5,1.2
						c0.3,0.4,0.8,0.6,1.2,0.5c0.5-0.1,0.8-0.5,1.1-0.9c0.2-0.4,0.3-0.9,0.3-1.3C369.4,303.6,369.4,303.1,369.4,303.1z"/>
				</g>
			</g>
			<g>
				<g>
					<path class="st11" d="M367.7,303.7c0-0.1,0.2-0.2,0.5,0.1c0.1,0.1,0.2,0.4,0.2,0.7c0,0.3-0.3,0.6-0.6,0.6
						c-0.3,0.1-0.6-0.1-0.7-0.3c-0.1-0.3-0.1-0.5,0-0.7c0.2-0.4,0.4-0.4,0.4-0.3s-0.1,0.2-0.2,0.4c0,0.3,0.1,0.6,0.4,0.5
						s0.3-0.4,0.2-0.6C367.9,303.8,367.8,303.8,367.7,303.7z"/>
				</g>
			</g>
			<g>
				<g>
					<path class="st11" d="M386.5,303.2c0,0,0.2,0.5,0.2,1.3c0,0.4-0.1,0.9-0.3,1.4c-0.2,0.5-0.8,0.9-1.4,0.9s-1.1-0.2-1.5-0.6
						s-0.6-0.8-0.7-1.2c-0.2-0.8-0.1-1.3,0-1.3s0.1,0.5,0.3,1.2c0.1,0.3,0.3,0.7,0.6,1c0.3,0.3,0.8,0.5,1.2,0.5
						c0.5,0,0.8-0.3,1.1-0.7c0.2-0.4,0.3-0.8,0.4-1.2C386.4,303.7,386.4,303.2,386.5,303.2z"/>
				</g>
			</g>
			<g>
				<g>
					<path class="st11" d="M384.7,303.7c0-0.1,0.2-0.1,0.4,0.1c0.1,0.1,0.2,0.3,0.1,0.6c0,0.3-0.3,0.5-0.5,0.5s-0.5-0.1-0.6-0.3
						c-0.1-0.2-0.1-0.4,0-0.6c0.1-0.3,0.3-0.3,0.4-0.3c0,0.1-0.1,0.2-0.1,0.3c0,0.2,0.1,0.4,0.3,0.3c0.2,0,0.2-0.2,0.2-0.4
						C384.8,303.8,384.7,303.8,384.7,303.7z"/>
				</g>
			</g>
			<g>
				<g>
					<path class="st11" d="M385.6,314.7c0,0-0.2,0.2-0.6,0.4c-0.4,0.3-0.9,0.6-1.6,1c-1.4,0.7-3.4,1.6-5.8,2.1
						c-2.3,0.5-4.5,0.5-6,0.4c-0.8-0.1-1.4-0.1-1.8-0.2s-0.7-0.1-0.7-0.2s1,0,2.5,0.1c1.5,0,3.7-0.1,5.9-0.6
						c2.3-0.5,4.3-1.3,5.7-1.9C384.7,315.2,385.6,314.7,385.6,314.7z"/>
				</g>
			</g>
		</g>
		<g>
			<g>
				<polygon class="st12" points="404.2,354.7 361.3,350.6 361.3,356 404.2,360.1 				"/>
			</g>
			<g>
				<g>
					<path class="st11" d="M374.8,351.7c0,0-0.7,0-1.8-0.1c-1.1-0.1-2.6-0.2-4.5-0.3l0.2-0.2c0.3,1.6,0.6,3.5,0.9,5.4
						c0,0.1,0,0.3,0.1,0.4l-0.2-0.2c2.1,0.2,4,0.3,5.7,0.4l-0.2,0.2c-0.1-1.7-0.2-3.1-0.2-4.1C374.8,352.3,374.8,351.7,374.8,351.7
						s0.1,0.5,0.2,1.5s0.2,2.4,0.4,4.2v0.2h-0.2c-1.7-0.1-3.6-0.2-5.7-0.3h-0.2v-0.2c0-0.1,0-0.3-0.1-0.4c-0.3-2-0.6-3.8-0.8-5.5
						v-0.3h0.2c1.9,0.2,3.5,0.4,4.6,0.5C374.3,351.6,374.9,351.6,374.8,351.7z"/>
				</g>
			</g>
			<g>
				<g>
					<path class="st10" d="M366.6,352.8c0-0.1,1.1-0.2,2.4-0.1s2.4,0.3,2.4,0.4s-1.1,0.2-2.4,0.1
						C367.7,353.1,366.6,352.9,366.6,352.8z"/>
				</g>
			</g>
			<g>
				<g>
					<path class="st10" d="M366.3,354.4c0-0.1,1.2-0.1,2.6,0c1.4,0.2,2.5,0.4,2.5,0.5s-1.2,0.1-2.6,0
						C367.5,354.7,366.3,354.5,366.3,354.4z"/>
				</g>
			</g>
		</g>
		<g>
			<g>
				<g>
					<g>
						<path class="st11" d="M318.4,304.7l-15.9-5.9l-0.6,2.3c0,0,6.2,10.9,13.4,13.1L318.4,304.7z"/>
					</g>
					<g>
						<path class="st11" d="M365.7,336.4c0,0-24.5-19.1-26-19.7s-12-0.6-14.6-0.3c-2.6,0.3-10.2-0.5-10.2-0.5l7.8-24l-16.5-4.7
							l0.9-3.3c0,0,13.3-8.9,21-6.3c7.7,2.5,11.3,13.7,12.9,16.5s5.1,12.7,21.5,24.4l9.7,7.2L365.7,336.4z"/>
					</g>
					<g>
						<g>
							<path class="st10" d="M339.2,297.7c0,0,0,0.1-0.1,0.3c-0.1,0.2-0.2,0.4-0.3,0.7c-0.3,0.7-0.6,1.6-1.1,2.8
								c-1,2.4-2.3,5.9-4,10.2l-0.2-0.2c0.9-0.1,1.8-0.1,2.8,0s2,0.2,3,0.7c1.8,1.1,3.6,2.5,5.5,4c3.8,2.9,7.9,6.1,12.2,9.4
								c0.6,0.5,1.1,0.9,1.8,1c0.6,0.1,1.3,0,1.9-0.4c1.1-0.7,1.7-2.3,1.4-3.6c-0.1-0.7-0.5-1.3-0.9-1.7c-0.5-0.4-1-0.8-1.6-1.3
								c-1-0.8-2.1-1.6-3.1-2.4c-4-3.2-7.6-6-10.6-8.4c-0.8-0.6-1.4-1.4-1.9-2.1s-1-1.5-1.4-2.1c-0.8-1.4-1.5-2.6-2-3.6
								s-0.9-1.8-1.2-2.3c-0.1-0.2-0.2-0.5-0.3-0.6C339.2,297.8,339.2,297.7,339.2,297.7s0.1,0.1,0.1,0.2c0.1,0.2,0.2,0.3,0.3,0.6
								c0.3,0.5,0.7,1.3,1.2,2.3s1.2,2.2,2.1,3.5c0.4,0.7,0.9,1.4,1.4,2.1s1.1,1.5,1.9,2c3,2.4,6.6,5.2,10.7,8.4
								c1,0.8,2,1.6,3.1,2.4c0.5,0.4,1,0.8,1.6,1.3c0.5,0.5,0.9,1.2,1.1,2c0.3,1.5-0.3,3.3-1.6,4.1c-0.6,0.4-1.4,0.6-2.1,0.5
								s-1.4-0.6-2-1c-4.3-3.4-8.4-6.6-12.2-9.5c-1.9-1.4-3.7-2.8-5.5-4c-0.9-0.5-1.9-0.6-2.8-0.7c-1-0.1-1.9-0.1-2.8,0h-0.3
								l0.1-0.3c1.8-4.3,3.2-7.8,4.2-10.2c0.5-1.2,0.9-2.1,1.1-2.7c0.1-0.3,0.2-0.5,0.3-0.7C339.2,297.8,339.2,297.7,339.2,297.7z"
								/>
						</g>
					</g>
					<g>
						<path class="st11" d="M402.9,358.2L402.9,358.2c-2.3,3.8-7,4.7-10.3,2l-32.7-28.4l5.8-11l35.3,26.3
							C404.2,349.7,405,354.6,402.9,358.2z"/>
					</g>
				</g>
				<g>
					<g>
						<polygon class="st10" points="331,296.2 328.1,306.4 322.7,306.4 326,296.2 						"/>
					</g>
					<g>
						<g>
							<path class="st10" d="M322.3,304.2c0-0.3,1.8-0.5,4-0.5s4,0.2,4,0.4c0,0.3-1.8,0.5-4,0.5
								C324.1,304.6,322.3,304.4,322.3,304.2z"/>
						</g>
					</g>
					<g>
						<g>
							<path class="st10" d="M323.4,300.9c0-0.3,1.8-0.5,4-0.5s4,0.2,4,0.4c0,0.3-1.8,0.5-4,0.5
								C325.1,301.3,323.4,301.2,323.4,300.9z"/>
						</g>
					</g>
					<g>
						<g>
							<path class="st10" d="M324,297.8c0-0.3,1.8-0.5,4-0.5s4,0.2,4,0.4c0,0.3-1.8,0.5-4,0.5C325.8,298.2,324,298,324,297.8z"/>
						</g>
					</g>
				</g>
			</g>
			<g>
				<g>
					<path class="st10" d="M318.5,303.6c0.1,0-0.4,2.5-1.3,5.3c-0.9,2.9-1.9,5.1-2,5.1s0.6-2.4,1.6-5.2
						C317.8,305.9,318.4,303.6,318.5,303.6z"/>
				</g>
			</g>
		</g>
		<path class="st19" d="M420.4,326.3c0.1-6.7-6.4-19.9-6.4-19.9l-11.6,8.1l1.9,5.5l-26,11.9l-7.1,0.4l-4.6,7.2l5.8,5.9l15.2-4.7
			C397.3,338.9,420.3,333.8,420.4,326.3z"/>
	</g>
	<g class="st2">
		<g>
			<g>
				<g>
					<g>
						<g>
							<path class="st12" d="M189.4,366.1l3.2-6.8l-11.4-6.8l-4.8,9.9l0.7,0.5c3.1,2.1,15.7,10.3,18.1,10.9
								C197.9,374.3,189.4,366.1,189.4,366.1z"/>
						</g>
					</g>
					<g class="st22">
						<g>
							<path d="M180.5,364.7c0.4-1.2,0.3-2.5-0.1-3.6s-1.2-2-2.2-2.5l-1.7,3.5L180.5,364.7z"/>
						</g>
					</g>
				</g>
				<g>
					<g>
						<path class="st23" d="M193.4,370.3c0,0,2.9,3.1,2.1,3.5c-0.7,0.4-13.8-7.4-19.2-11.4l0.2-0.3l15.1,9.2
							C191.6,371.3,192.8,369.9,193.4,370.3z"/>
					</g>
				</g>
				<g>
					<g>
						<g>
							<path class="st10" d="M176.3,361.9c0,0,0.1,0.1,0.2,0.1c0.2,0.1,0.3,0.2,0.5,0.4c0.6,0.4,1.2,0.8,2,1.3
								c1.7,1.1,4.1,2.6,6.8,4.2c2.7,1.6,5.1,3,6.9,4c0.8,0.5,1.5,0.8,2.1,1.1c0.2,0.1,0.4,0.2,0.6,0.3c0.1,0.1,0.2,0.1,0.2,0.1
								s-0.1,0-0.2-0.1c-0.2-0.1-0.4-0.2-0.6-0.3c-0.6-0.3-1.3-0.7-2.1-1.2c-1.8-1-4.2-2.4-6.9-4c-2.7-1.6-5.1-3.1-6.8-4.2
								c-0.8-0.5-1.5-0.9-2.1-1.3c-0.2-0.1-0.4-0.2-0.6-0.3C176.4,362,176.3,361.9,176.3,361.9z"/>
						</g>
					</g>
				</g>
				<g>
					<g>
						<g>
							<path class="st10" d="M191.5,371.5c0,0,0.3-0.5,0.9-0.9s1.1-0.4,1.1-0.5c0,0-0.6-0.1-1.2,0.3
								C191.8,370.9,191.5,371.5,191.5,371.5z"/>
						</g>
					</g>
				</g>
				<g>
					<g>
						<g>
							<path class="st10" d="M189.1,367.6c0,0,0.3-0.1,0.6-0.3c0.3-0.2,0.5-0.4,0.5-0.4s-0.3,0.1-0.6,0.3S189.1,367.5,189.1,367.6z"
								/>
						</g>
					</g>
				</g>
				<g>
					<g>
						<g>
							<path class="st10" d="M188.4,366.5c0,0,0.3,0,0.5-0.1c0.3-0.1,0.5-0.2,0.5-0.2s-0.3,0-0.5,0.1
								C188.6,366.3,188.4,366.4,188.4,366.5z"/>
						</g>
					</g>
				</g>
				<g>
					<g>
						<g>
							<path class="st10" d="M188.4,364.9c0,0,0.2,0.2,0.6,0.4c0.3,0.2,0.6,0.3,0.6,0.3s-0.2-0.2-0.6-0.4
								C188.7,365,188.4,364.9,188.4,364.9z"/>
						</g>
					</g>
				</g>
				<g>
					<g>
						<g>
							<path class="st10" d="M188.6,364c0,0,0.2,0.3,0.6,0.6c0.4,0.3,0.7,0.4,0.7,0.3c0,0-0.3-0.2-0.7-0.5
								C188.9,364.2,188.7,363.9,188.6,364z"/>
						</g>
					</g>
				</g>
				<g>
					<g>
						<g>
							<path class="st10" d="M190,366.7c0,0,0.3,0.2,0.7,0.4c0.2,0.1,0.5,0.2,0.9,0.3c0.2,0,0.3,0.1,0.5,0.1c0.1,0,0.2,0,0.3-0.1
								c0.1-0.1,0.1-0.3,0-0.4c-0.5-0.8-1.4-0.8-1.9-0.6C190.3,366.5,190.1,366.7,190,366.7c-0.1,0.2-0.1,0.3-0.1,0.3
								s0.2-0.3,0.7-0.5c0.2-0.1,0.5-0.2,0.8-0.1s0.7,0.3,0.8,0.6c0.1,0.2,0,0.3-0.2,0.3s-0.3,0-0.5-0.1c-0.3-0.1-0.6-0.1-0.9-0.2
								C190.3,366.8,190,366.7,190,366.7z"/>
						</g>
					</g>
				</g>
				<g>
					<g>
						<g>
							<path class="st10" d="M190.2,366.9c0,0,0.2-0.1,0.4-0.5c0.1-0.2,0.1-0.4,0.1-0.7c0-0.3-0.1-0.6-0.4-0.8
								c-0.2-0.1-0.4,0.1-0.4,0.2c-0.1,0.2-0.1,0.3-0.1,0.4c0,0.3,0.1,0.5,0.1,0.7C190,366.6,190.1,366.8,190.2,366.9
								c0-0.1-0.1-0.3-0.2-0.7c0-0.2-0.1-0.4-0.1-0.7c0-0.2,0.1-0.6,0.3-0.5c0.2,0.1,0.3,0.4,0.3,0.6s0,0.5,0,0.7
								C190.3,366.7,190.2,366.8,190.2,366.9z"/>
						</g>
					</g>
				</g>
				<g>
					<g>
						<g>
							<path class="st10" d="M178.2,358.6c0,0,0.3,0.2,0.8,0.5c0.5,0.4,1.1,1,1.4,1.9c0.4,0.9,0.4,1.9,0.3,2.5s-0.2,1-0.2,1
								s0.1-0.1,0.1-0.3c0.1-0.2,0.1-0.4,0.2-0.8c0.1-0.7,0.1-1.6-0.2-2.6c-0.4-1-1-1.6-1.5-2c-0.3-0.2-0.5-0.3-0.6-0.4
								C178.3,358.6,178.2,358.6,178.2,358.6z"/>
						</g>
					</g>
				</g>
				<g>
					<g>
						<g>
							<path class="st10" d="M182,354c0,0-0.6,1.1-1.4,2.5c-0.7,1.4-1.3,2.6-1.2,2.6c0,0,0.6-1.1,1.4-2.5
								C181.5,355.2,182,354.1,182,354z"/>
						</g>
					</g>
				</g>
				<g>
					<g>
						<g>
							<path class="st10" d="M182.6,364.3c0,0,0.7,0.6,1.6,1.2s1.7,0.9,1.7,0.9s-0.8-0.4-1.7-1S182.6,364.3,182.6,364.3z"/>
						</g>
					</g>
				</g>
				<g>
					<g>
						<g>
							<path class="st10" d="M180.3,363c0,0,0,0.2,0,0.4c0,0.2-0.1,0.4,0,0.4c0,0,0.2-0.2,0.2-0.4S180.4,363,180.3,363z"/>
						</g>
					</g>
				</g>
				<g>
					<g>
						<g>
							<path class="st10" d="M180.1,361.3c0,0,0,0.2,0,0.4s0.1,0.4,0.2,0.3c0,0,0-0.2,0-0.4C180.2,361.5,180.1,361.3,180.1,361.3z"
								/>
						</g>
					</g>
				</g>
				<g>
					<g>
						<g>
							<path class="st10" d="M179.1,360.1c0,0,0.1,0.1,0.3,0.3c0.1,0.2,0.2,0.3,0.3,0.3c0,0,0-0.2-0.1-0.4
								C179.3,360,179.1,360,179.1,360.1z"/>
						</g>
					</g>
				</g>
				<g>
					<g>
						<g>
							<path class="st10" d="M178.4,359.3c0,0,0,0.1,0.1,0.2s0.2,0.2,0.2,0.1c0,0,0-0.1-0.1-0.2S178.4,359.3,178.4,359.3z"/>
						</g>
					</g>
				</g>
			</g>
		</g>
		<g>
			<rect x="231.4" y="364.5" class="st10" width="28.9" height="6.5"/>
			<rect x="243.8" y="406.8" class="st10" width="28.9" height="6.5"/>
			<rect x="251.2" y="444.3" class="st10" width="34.7" height="6.5"/>
			<rect x="221.7" y="320.8" class="st10" width="24.6" height="6.5"/>
			<rect x="209.4" y="277.1" class="st10" width="24.6" height="6.5"/>
			<polygon class="st10" points="199.2,233.7 120,501.5 127.5,501.5 201.9,252.1 258.1,501.5 267.1,501.5 206.4,233.7 			"/>
			<polygon class="st11" points="217.7,233.7 156.2,501.5 167.9,501.5 222.6,252.5 296.6,501.5 306.9,501.5 226.3,233.7 			"/>
			<path class="st11" d="M149.6,412.5L149.6,412.5c0,1.8,1.3,3.2,2.9,3.2h26.3c1.6,0,2.9-1.4,2.9-3.2l0,0c0-1.8-1.3-3.2-2.9-3.2
				h-26.3C150.9,409.2,149.6,410.7,149.6,412.5z"/>
			<path class="st11" d="M138.2,454L138.2,454c0,1.8,1.3,3.2,2.9,3.2h26.3c1.6,0,2.9-1.4,2.9-3.2l0,0c0-1.8-1.3-3.2-2.9-3.2h-26.3
				C139.5,450.8,138.2,452.2,138.2,454z"/>
			<path class="st11" d="M162.3,369.7L162.3,369.7c0,1.8,1.3,3.2,2.9,3.2h26.3c1.6,0,2.9-1.4,2.9-3.2l0,0c0-1.8-1.3-3.2-2.9-3.2
				h-26.3C163.6,366.4,162.3,367.9,162.3,369.7z"/>
			<path class="st11" d="M175,325.3L175,325.3c0,1.8,1.3,3.2,2.9,3.2h24.6c1.6,0,2.9-1.4,2.9-3.2l0,0c0-1.8-1.3-3.2-2.9-3.2h-24.6
				C176.3,322.1,175,323.5,175,325.3z"/>
			<path class="st11" d="M186.8,281.5L186.8,281.5c0,1.8,1.3,3.2,2.9,3.2h18.8c1.6,0,2.9-1.4,2.9-3.2l0,0c0-1.8-1.3-3.2-2.9-3.2
				h-18.8C188.1,278.2,186.8,279.7,186.8,281.5z"/>
		</g>
		<g>
			<g>
				<g>
					<path class="st19" d="M192.2,215.4c0.4,0.1,7.2,17,12.6,17.1c5.5,0.1,33.3-2.4,33.3-2.4l0.3-9l-28.8,0.1l-8.7-13.1L192.2,215.4
						z"/>
				</g>
				<g>
					<path class="st19" d="M234.9,222.2c0,0,4.7-1.7,5.3-2.5s2.7-4.7,2.7-4.7s0.8,1.2,0.5,2.3c-0.2,0.6-0.4,1.8-0.6,2.6
						c-0.1,0.5,0.3,1,0.8,0.9c1.1-0.2,2.8-0.4,3,0.2c0.3,0.9-1,6.8-2,7.9s-7.5,1.1-7.5,1.1L234.9,222.2z"/>
				</g>
				<g>
					<g>
						<path class="st20" d="M245.3,222.8c0,0-0.3,0.4-1,0.7c-0.3,0.2-0.7,0.3-1.2,0.4c-0.3,0-0.6,0-0.8-0.2c-0.3-0.2-0.4-0.6-0.4-1
							c0.1-0.4,0.3-0.7,0.5-0.9c0.2-0.2,0.5-0.3,0.7-0.4c0.5-0.1,0.9-0.2,1.2-0.3c0.7-0.2,1.1-0.2,1.1-0.2c0,0.1-0.4,0.2-1.1,0.5
							c-0.4,0.1-0.8,0.3-1.2,0.4c-0.4,0.1-0.9,0.4-0.9,0.9c-0.1,0.5,0.3,0.7,0.8,0.7c0.4,0,0.8-0.2,1.2-0.3
							C244.8,223,245.2,222.7,245.3,222.8z"/>
					</g>
				</g>
				<g>
					<g>
						<path class="st20" d="M244.5,225.4c0,0.1-0.3,0.2-0.8,0.5c-0.1,0.1-0.3,0.1-0.5,0.1s-0.5-0.1-0.6-0.2
							c-0.3-0.3-0.5-0.9-0.2-1.5c0.3-0.5,0.7-0.7,1.1-0.8c0.3-0.1,0.6-0.3,0.9-0.4c0.5-0.2,0.9-0.3,0.9-0.2c0,0.1-0.3,0.2-0.8,0.5
							c-0.2,0.1-0.5,0.3-0.9,0.5c-0.3,0.2-0.7,0.3-0.9,0.6c-0.2,0.3-0.1,0.7,0.1,0.9c0.1,0.1,0.2,0.2,0.3,0.2c0.1,0,0.3,0,0.4-0.1
							C244.1,225.5,244.5,225.4,244.5,225.4z"/>
					</g>
				</g>
				<g>
					<g>
						<path class="st20" d="M241.6,227.4c-0.1,0-0.1-0.3-0.4-0.7c-0.2-0.4-0.7-1-1.3-1.4l-0.3-0.2l0.2-0.2c0.2-0.2,0.3-0.3,0.5-0.5
							c1.3-1.4,1.7-3.2,1.8-3.1c0.1,0,0,0.5-0.2,1.1c-0.2,0.7-0.6,1.6-1.4,2.3c-0.2,0.2-0.4,0.4-0.5,0.5v-0.4
							c0.7,0.5,1.2,1.2,1.4,1.7C241.6,227,241.6,227.4,241.6,227.4z"/>
					</g>
				</g>
				<g>
					<g>
						<path class="st20" d="M244.6,227.5c0,0-0.2,0.3-0.7,0.5c-0.2,0.1-0.6,0.2-1-0.1c-0.2-0.1-0.3-0.3-0.4-0.5s-0.1-0.5,0-0.8
							c0.2-0.5,0.6-0.7,0.9-0.9c0.3-0.2,0.6-0.3,0.8-0.4c0.5-0.2,0.8-0.3,0.8-0.2c0,0.1-0.3,0.2-0.7,0.5c-0.2,0.1-0.5,0.3-0.7,0.5
							c-0.3,0.2-0.6,0.4-0.7,0.7c-0.1,0.3,0.1,0.6,0.3,0.7c0.2,0.2,0.5,0.1,0.7,0.1C244.3,227.6,244.6,227.4,244.6,227.5z"/>
					</g>
				</g>
			</g>
			<g>
				<g>
					<path class="st10" d="M164.3,168.4c-0.2,1.6-0.3,3.2-0.8,4.7s-1.3,2.9-2.6,3.7c-1.2,0.7-2.8,1.1-3.3,2.5s0.5,3.3-0.4,4.3
						c-0.4,0.4-0.9,0.5-1.5,0.7c-1.7,0.5-3.4,1.8-4.2,3.6c-0.9,2.1-0.6,4.7,0.4,6.7c1,2.1,2.5,3.7,4,5.4l15.3-3.6
						c0,0-4.5-26.8-4.4-26.6C166.9,169.8,164.3,168.4,164.3,168.4z"/>
				</g>
				<g>
					<path class="st10" d="M184.5,169.8c0.1,0.8,0.7,1.5,1.3,2c0.6,0.5,1.4,0.8,1.9,1.3c1,1,1.5,2.6,1.5,4.1s-0.4,3-0.7,4.4
						c2.5,0.1,4.9,1.5,6.4,3.7s2.3,5,2.3,7.7c0,2-0.4,4.1-1.8,5.4c-1.1,1-2.5,1.3-3.9,1.5c-2.8,0.5-5.5,0.7-8.3,1s-5.8,0.5-8.2-1
						c-2.1-1.2-3.5-3.5-4.3-5.9c-1.3-3.6-1.6-7.5-1.3-11.4c0.3-3.8,1.2-7.6,2.3-11.3"/>
				</g>
				<g>
					<g>
						<path class="st10" d="M165.3,165.4c-1.4-0.7-2.8-1.3-4.4-1.3c-1.5,0-3.1,1-3.5,2.6c-0.2,0.9-0.1,1.8,0.3,2.6s0.9,1.5,1.4,2.1
							c0.6,0.6,1.2,1.3,2.1,1.3c0.6,0.1,1.2-0.2,1.8-0.6c1-0.7,1.9-1.8,2.2-3.1c0.3-1.3-0.1-2.8-1-3.6"/>
					</g>
					<g>
						<path class="st12" d="M182.6,161.6c0,0,2.7-1.1,2.8-3c0-2-20.4-4.8-24.3,6.3c0,0,0.8,0.6,3.9,0.4"/>
					</g>
					<g class="st18">
						<path d="M182.6,161.6c0,0,2.7-1.1,2.8-3c0-2-20.4-4.8-24.3,6.3c0,0,0.8,0.6,3.9,0.4"/>
					</g>
					<g>
						<g>
							<g>
								<g>
									<g>
										<g>
											<path class="st19" d="M167,192.2l12.5-1.1c0.1-1.6,0-7.9,0-7.9s5.2-0.9,5.3-6.7c0.1-5.8-0.8-19-0.8-19l0,0
												c-6-2.9-12.9-1.9-18.1,2.5l-0.8,0.7L167,192.2z"/>
										</g>
									</g>
									<g>
										<g>
											<g>
												<path class="st10" d="M181.8,167.2c-0.3-0.3-0.3-0.8-0.1-1.2c0.3-0.3,0.8-0.4,1.1-0.1c0.3,0.3,0.3,0.8,0.1,1.2
													C182.5,167.5,182.1,167.5,181.8,167.2z"/>
											</g>
										</g>
										<g>
											<g>
												<g>
													<path class="st10" d="M183.9,166.2c-0.1,0.1-0.6-0.3-1.3-0.3c-0.7,0-1.2,0.4-1.3,0.3c0,0,0-0.2,0.3-0.4
														c0.2-0.2,0.6-0.4,1-0.4s0.8,0.2,1,0.4C183.9,166,184,166.1,183.9,166.2z"/>
												</g>
											</g>
										</g>
									</g>
									<g>
										<g>
											<g>
												<path class="st10" d="M175,166.6c0.4,0.2,0.5,0.8,0.2,1.2c-0.2,0.4-0.7,0.5-1,0.3c-0.4-0.2-0.5-0.8-0.2-1.2
													C174.2,166.5,174.7,166.4,175,166.6z"/>
											</g>
										</g>
										<g>
											<g>
												<g>
													<path class="st10" d="M176.2,166.9c-0.1,0.1-0.6-0.3-1.3-0.3c-0.7,0-1.2,0.4-1.3,0.3c0,0,0-0.2,0.3-0.4
														c0.2-0.2,0.6-0.4,1-0.4s0.8,0.2,1,0.4C176.1,166.7,176.2,166.8,176.2,166.9z"/>
												</g>
											</g>
										</g>
									</g>
									<g>
										<g>
											<g>
												<path class="st10" d="M179,173.4c0-0.1,0.4-0.2,1.2-0.3c0.2,0,0.3-0.1,0.3-0.2s0-0.3-0.1-0.6c-0.2-0.5-0.4-1.1-0.6-1.6
													c-0.8-2.3-1.3-4.2-1.2-4.2c0.1,0,0.8,1.8,1.6,4.1c0.2,0.6,0.4,1.1,0.5,1.6c0.1,0.2,0.2,0.5,0.1,0.9
													c-0.1,0.2-0.2,0.3-0.3,0.3c-0.1,0-0.2,0-0.3,0C179.5,173.5,179,173.5,179,173.4z"/>
											</g>
										</g>
									</g>
									<g>
										<g>
											<path class="st20" d="M179.4,183.2c0,0-3.3,0.3-6.8-2.1c0,0,1.6,4.1,6.8,3.6V183.2z"/>
										</g>
									</g>
								</g>
							</g>
						</g>
						<g>
							<path class="st10" d="M184,159c0,0-3,2-7.3,0c-2.8-1.3-6-1.7-6.6-1.1c-0.7,0.7,0.5,6.6-2.1,7.8c0,0-0.5,3-2.6,2.9
								c-2.1,0-1.4-9.2-1.4-9.2l5-3.2l5.5-1.6l5.4,0.4l4.2,0.9L184,159L184,159z"/>
						</g>
						<g>
							<g>
								<g>
									<path class="st19" d="M165.6,166.7c-0.1,0-3.6-1.2-3.4,2.8c0.1,3.9,3.6,3,3.7,2.9C165.8,172.3,165.6,166.7,165.6,166.7z"/>
								</g>
							</g>
							<g>
								<g>
									<g>
										<path class="st20" d="M164.7,170.9c0,0-0.1,0.1-0.2,0.1c-0.1,0.1-0.3,0.1-0.5,0c-0.4-0.1-0.7-0.8-0.8-1.5
											c0-0.4,0-0.7,0.1-1s0.3-0.5,0.4-0.5c0.2-0.1,0.3,0.1,0.4,0.2s0,0.2,0,0.2s0.1-0.1,0-0.2c0-0.1-0.1-0.2-0.1-0.2
											c-0.1-0.1-0.2-0.1-0.3-0.1c-0.3,0-0.5,0.3-0.6,0.6c-0.1,0.3-0.2,0.7-0.2,1.1c0,0.8,0.4,1.5,0.9,1.7c0.3,0.1,0.5,0,0.6-0.1
											C164.7,171,164.7,171,164.7,170.9z"/>
									</g>
								</g>
							</g>
						</g>
						<g>
							<g>
								<path class="st10" d="M163.2,154.5c0-0.1,0.5-0.4,1.3-0.2c0.7,0.2,1.1,0.9,1,0.9c-0.1,0.1-0.5-0.3-1.1-0.5
									C163.8,154.6,163.2,154.7,163.2,154.5z"/>
							</g>
						</g>
						<g>
							<g>
								<path class="st10" d="M165.2,152.1c0.1,0,0.1,0.8,0.3,1.8c0.2,1,0.6,1.6,0.5,1.7s-0.7-0.5-0.9-1.6
									C164.9,152.9,165.1,152,165.2,152.1z"/>
							</g>
						</g>
						<g>
							<g>
								<path class="st10" d="M180.4,164.9c-0.1-0.2,0.5-0.9,1.6-0.9c1-0.1,1.7,0.5,1.6,0.8c-0.1,0.2-0.8,0.1-1.6,0.2
									C181.2,164.9,180.6,165.1,180.4,164.9z"/>
							</g>
						</g>
						<g>
							<path class="st10" d="M170,157.8c1.1,0.7,2.1,1.7,3.1,2.6s2.3,1.6,3.5,1.4c-0.1-0.2-0.2-0.4-0.3-0.7c1.9,0.8,3.9,1.4,5.9,1.6
								c0.7,0.1,1.6,0.1,2.1-0.6s-0.2-1.9-0.3-3.1c-0.1-0.9-0.3-1.1-1.1-1.4c-0.3-0.1-0.7-0.1-1.1-0.1c-2.8,0.1-5.6,0-8.4-0.5
								c-0.7-0.1-1.3-0.2-2-0.2c-0.7,0.1-1.3,0.4-1.7,0.9"/>
						</g>
					</g>
					<g>
						<path class="st20" d="M179.1,174.2c-0.2-0.2-0.5-0.2-0.8,0c-0.2,0.2-0.4,0.5-0.4,0.8s0.1,0.6,0.3,0.8c0.1,0.2,0.3,0.3,0.6,0.4
							c0.4,0.1,0.7-0.1,0.9-0.4c0.2-0.3,0.2-0.8,0-1.1c-0.2-0.3-0.6-0.5-0.9-0.5"/>
					</g>
					<g>
						<g>
							<path class="st10" d="M180.9,175.3c0,0.1-0.2,0.2-0.6,0.2s-0.9-0.1-1.5-0.3c-1.1-0.5-1.8-1.3-1.7-1.4c0.1-0.1,0.8,0.5,1.8,1
								c0.5,0.2,1,0.4,1.4,0.4C180.6,175.2,180.9,175.2,180.9,175.3z"/>
						</g>
					</g>
					<g>
						<g>
							<path class="st10" d="M176,164.8c-0.1,0.1-0.3,0.1-0.5,0.1s-0.6,0.1-1,0.2c-0.9,0.1-1.6,0-1.6-0.3s0.7-0.5,1.6-0.6
								c0.4,0,0.9-0.1,1.2,0.1C176,164.4,176.1,164.7,176,164.8z"/>
						</g>
					</g>
					<g>
						<path class="st10" d="M167.5,160.4c0.1,3.2,0.6,6.3,0.6,9.4c0,3.2-0.5,6.5-2.4,8.9c-0.7,0.8-1.5,1.6-2.5,1.7
							c-0.6,0-1.2-0.2-1.5-0.8c-0.2-0.5,0-1,0.2-1.5c0.6-1.5,1.4-2.8,2.2-4.2c0.8-1.4,1.4-2.9,1.5-4.5c0-1.2-0.2-2.3-0.4-3.5
							c-0.2-1.2-0.4-2.4-0.1-3.5s1.1-2.2,2.1-2.4"/>
					</g>
					<g>
						<path class="st12" d="M174.2,157.8c9.3-1.1,11.1,0.7,11.2,0.8c0.3-0.4,0.4-0.7,0.5-1c0.3-3.1-3-3.9-3-3.9
							c-2.1-10.6-10.7-9.5-10.7-9.5v-0.1c-0.2-0.9-1-1.5-1.8-1.4l-1.3,0.3c-0.8,0.2-1.4,1.1-1.2,2l0,0c-10.1,3.7-6.7,14.1-6.7,14.1
							l-1.5,2c-1.3,2.9,1.5,3.8,1.5,3.8S164.6,158.9,174.2,157.8z"/>
					</g>
					<g class="st18">
						<g>
							<path d="M169.5,154.1c-0.1,0-0.6-2-1.1-4.5s-0.8-4.5-0.7-4.6c0.1,0,0.6,2,1.1,4.5C169.3,152.1,169.6,154.1,169.5,154.1z"/>
						</g>
					</g>
					<g class="st18">
						<g>
							<path d="M174.5,152.8c-0.1,0-0.7-1.9-1.3-4.3c-0.6-2.4-1-4.4-0.9-4.4s0.7,1.9,1.3,4.3C174.2,150.8,174.6,152.7,174.5,152.8z"
								/>
						</g>
					</g>
					<g class="st18">
						<g>
							<path d="M182.4,154.1c0,0.1-1.2-0.3-3.2-0.5s-4.7-0.1-7.6,0.7c-2.9,0.8-5.4,2.1-7.2,3.1c-1.7,1-2.8,1.8-2.8,1.7
								c0,0,0.2-0.2,0.7-0.6s1.1-0.8,2-1.4c1.7-1.1,4.2-2.4,7.2-3.2c3-0.8,5.8-0.8,7.8-0.6c1,0.1,1.8,0.3,2.3,0.5
								C182.2,153.9,182.5,154,182.4,154.1z"/>
						</g>
					</g>
					<g class="st21">
						<g>
							<path class="st16" d="M169.9,156c0,0.1-2.5,0.8-5.2,2.5c-2.8,1.7-4.6,3.6-4.7,3.5c0,0,0.4-0.6,1.2-1.4
								c0.8-0.8,1.9-1.7,3.3-2.6c1.4-0.8,2.8-1.4,3.8-1.7C169.3,156.1,169.9,156,169.9,156z"/>
						</g>
					</g>
					<g class="st21">
						<g>
							<path class="st16" d="M161.9,157.5c-0.3,0.1-0.7-0.7-0.9-2c-0.2-1.3,0-3.3,0.9-5.2c0.9-1.9,2.3-3.2,3.4-3.7
								c1.1-0.6,1.9-0.6,2-0.3c0.2,0.6-2.1,2.1-3.5,5.1C162.3,154.3,162.5,157.3,161.9,157.5z"/>
						</g>
					</g>
				</g>
			</g>
			<g>
				<g>
					<path class="st12" d="M155,259.8l37.8,3.8c0.1-2.9-0.7-20.4-1.2-31.9c-0.1-2.2,1.9-6,1.8-7.8c-0.2-4.5-0.8-4.7-0.8-4.7l2.2,4.5
						l11.2-11.1l-9.8-14.7c-3.1-4.7-7.8-7.7-13-8.5c-1.5-0.2-2.7-0.3-3.4-0.4c-4.4,1.5-8.9,1.5-13.3,0l0,0c-2.1,0.1-3.8,0.5-5.5,1.2
						c-3.4,1.4-6.3,3.5-8.8,6.3l0,0l-16,21l14.9,10.6l5.7-6.7l0.7,17.3L155,259.8z"/>
				</g>
				<g>
					<g>
						<path class="st16" d="M190.1,212c0,0.1-5.6,0.2-12.5,0.2s-12.5-0.1-12.5-0.2s5.6-0.2,12.5-0.2
							C184.6,211.8,190.1,211.9,190.1,212z"/>
					</g>
				</g>
				<g>
					<g>
						<path class="st16" d="M189.3,207.5c0,0.1-1.6,0.2-3.6,0.2s-3.6-0.1-3.6-0.2s1.6-0.2,3.6-0.2
							C187.7,207.3,189.3,207.4,189.3,207.5z"/>
					</g>
				</g>
				<g>
					<g>
						<path class="st10" d="M162.3,213.8c0,0-0.5,0.9-1.5,2.2c-1,1.3-2.4,3.1-3.9,5c-1.5,2-3,3.7-4,5s-1.7,2-1.8,2
							c0,0,0.5-0.9,1.5-2.2c1-1.3,2.4-3.1,3.9-5.1s3-3.7,4-5C161.6,214.5,162.2,213.8,162.3,213.8z"/>
					</g>
				</g>
			</g>
			<g>
				<g>
					<path class="st12" d="M159.6,401.7l-1.2,5.8c0,0-8.5,12.2-11.1,11.6c-1.7-0.4,0.4-3.6,3.6-12.9l0.7-3.8L159.6,401.7z"/>
				</g>
				<g>
					<g>
						<path class="st10" d="M146.9,417.3c0,0,0.1,0.3,0.5,0.5s1,0.2,1.6-0.3c1.2-1,2.6-2.6,4.2-4.4c1.6-1.8,2.9-3.6,3.8-4.9
							c0.4-0.6,0.8-1.1,1.1-1.6c0.1-0.1,0.2-0.3,0.3-0.4c0.1-0.1,0.1-0.1,0.1-0.1s0,0.1-0.1,0.2c-0.1,0.1-0.2,0.3-0.3,0.4
							c-0.2,0.4-0.6,0.9-1,1.6c-0.9,1.3-2.2,3.1-3.8,4.9c-1.6,1.8-3.1,3.4-4.3,4.4c-0.3,0.2-0.7,0.4-1,0.4s-0.6-0.1-0.8-0.2
							c-0.2-0.1-0.3-0.3-0.4-0.4C146.9,417.4,146.9,417.3,146.9,417.3z"/>
					</g>
				</g>
				<g>
					<g>
						<path class="st10" d="M148.1,413.4c0,0,0.3-0.1,0.7-0.1c0.4,0,1,0.2,1.6,0.6c0.6,0.4,1,0.9,1.2,1.4c0.2,0.4,0.2,0.8,0.2,0.8
							s-0.1-0.3-0.3-0.7c-0.2-0.4-0.6-0.9-1.1-1.3c-0.5-0.4-1.1-0.6-1.5-0.6C148.3,413.3,148.1,413.4,148.1,413.4z"/>
					</g>
				</g>
				<g>
					<g>
						<path class="st10" d="M156.1,410.5c0,0,0-0.1-0.1-0.3s-0.1-0.4-0.2-0.8c-0.1-0.7,0-1.7,0.4-2.6c0.4-1,1.2-1.6,1.7-1.9
							c0.3-0.1,0.5-0.2,0.7-0.2s0.3,0,0.3,0s-0.4,0.1-0.9,0.4c-0.5,0.3-1.2,0.9-1.6,1.8c-0.4,0.9-0.5,1.9-0.4,2.5
							C156,410.1,156.1,410.5,156.1,410.5z"/>
					</g>
				</g>
				<g>
					<g>
						<path class="st10" d="M159,402.7c0,0-0.1,0.8-0.3,1.8c-0.2,1-0.4,1.8-0.4,1.8s0.1-0.8,0.3-1.8
							C158.7,403.5,159,402.7,159,402.7z"/>
					</g>
				</g>
				<g>
					<g>
						<path class="st10" d="M150.7,407c0,0,0.5-0.1,1.1,0c0.6,0.2,1,0.5,1,0.5s-0.5-0.2-1-0.3C151.2,407.1,150.7,407.1,150.7,407z"
							/>
					</g>
				</g>
				<g>
					<g>
						<path class="st10" d="M150.5,408c0,0,0.4-0.2,0.9,0c0.5,0.1,0.8,0.5,0.8,0.5s-0.4-0.2-0.8-0.3
							C150.9,408,150.5,408.1,150.5,408z"/>
					</g>
				</g>
				<g>
					<g>
						<path class="st10" d="M149.8,409.3c0,0,0.4-0.3,1-0.1c0.6,0.1,0.8,0.6,0.8,0.6s-0.3-0.3-0.8-0.4
							C150.3,409.2,149.9,409.3,149.8,409.3z"/>
					</g>
				</g>
				<g>
					<g>
						<path class="st10" d="M151.3,406.6c0,0,0.4-0.1,1-0.4c0.3-0.1,0.7-0.3,1-0.5c0.2-0.1,0.4-0.3,0.6-0.4c0.2-0.1,0.4-0.4,0.4-0.6
							c0-0.2-0.3-0.3-0.4-0.3c-0.2,0.1-0.4,0.2-0.5,0.4c-0.3,0.3-0.6,0.6-0.8,0.9c-0.4,0.5-0.7,0.9-0.7,0.9s0-0.1,0.1-0.3
							s0.3-0.4,0.5-0.7s0.5-0.6,0.8-0.9c0.2-0.2,0.3-0.4,0.6-0.4c0.2-0.1,0.6,0.1,0.6,0.5s-0.2,0.6-0.4,0.7
							c-0.2,0.2-0.4,0.3-0.6,0.4c-0.4,0.2-0.7,0.4-1.1,0.5c-0.3,0.1-0.6,0.2-0.8,0.2C151.4,406.6,151.3,406.6,151.3,406.6z"/>
					</g>
				</g>
				<g>
					<g>
						<path class="st10" d="M151.7,406.5c0,0-0.1-0.4-0.2-1.1c-0.1-0.3-0.1-0.7-0.3-1.1c-0.1-0.2-0.2-0.4-0.3-0.6
							c-0.1-0.2-0.3-0.3-0.5-0.2s-0.2,0.4-0.2,0.6c0,0.2,0.1,0.4,0.2,0.6c0.1,0.4,0.4,0.7,0.6,0.9
							C151.4,406.2,151.7,406.5,151.7,406.5s-0.1,0-0.2-0.1s-0.3-0.3-0.5-0.5s-0.4-0.6-0.6-1c-0.1-0.2-0.2-0.4-0.2-0.7
							c0-0.2,0-0.6,0.2-0.8c0.3-0.2,0.5,0.1,0.7,0.2c0.2,0.2,0.3,0.4,0.3,0.6c0.2,0.4,0.2,0.8,0.3,1.1c0,0.3,0,0.6,0.1,0.8
							C151.7,406.4,151.7,406.5,151.7,406.5z"/>
					</g>
				</g>
				<g class="st22">
					<path d="M158.3,407.5l0.6-2.8c0,0-2.1,0.4-2.6,2.2c-0.5,1.7-0.4,3-0.4,3l-4.5,5.4c0,0-1.1-2.5-3.2-1.9c0,0-1.6,3.9-1.6,4.9
						c0.1,1.1,1.1,0.9,1.5,0.7c0.2-0.1,2.1-1.3,4-3.5C154.5,412.7,157.2,409.2,158.3,407.5z"/>
				</g>
			</g>
			<g>
				<g>
					<path class="st19" d="M132.4,245.2c-4.1-5.3-4.1-13.2,0.1-18.4l6.3-7.6l11.4,8.1c-0.4,0.3-7.9,9.3-7.9,9.3l13.2,18.2
						c2,2.8,2.6,6.6,1.6,10l-2.3,10.2l-10.9-5.4l0.7-1.2h7.2l0.4-1.9l0,0L132.4,245.2z"/>
				</g>
				<g>
					<g>
						<path class="st20" d="M139.4,233.4c0.1-0.1,0.9,0.7,1.8,1.7s1.5,2,1.4,2.1s-0.8-0.7-1.7-1.7
							C140,234.4,139.4,233.4,139.4,233.4z"/>
					</g>
				</g>
			</g>
			<g>
				<g>
					<path class="st24" d="M152.1,226.3"/>
				</g>
			</g>
			<g>
				<g>
					<polygon class="st10" points="164.7,262.3 166.9,216.7 190.4,216.7 192.2,265.1 					"/>
				</g>
				<g>
					<g>
						<path class="st11" d="M187.1,228.5c0,0-0.2,0.2-0.5,0.5c-0.4,0.3-0.9,0.7-1.6,1.1c-1.4,0.8-3.5,1.8-5.9,2.3s-4.6,0.6-6.2,0.4
							c-0.8-0.1-1.4-0.2-1.9-0.3c-0.4-0.1-0.7-0.2-0.7-0.2c0-0.1,1,0.1,2.6,0.2s3.8,0,6.1-0.5c2.4-0.5,4.4-1.4,5.8-2.2
							C186.3,229,187.1,228.4,187.1,228.5z"/>
					</g>
				</g>
				<g>
					<g>
						<g>
							<path class="st11" d="M170.6,235.2c-0.1,0-0.2-0.3-0.2-0.7c0-0.4,0.1-0.7,0.2-0.7s0.2,0.3,0.2,0.7
								C170.8,234.9,170.7,235.2,170.6,235.2z"/>
						</g>
					</g>
					<g>
						<g>
							<path class="st11" d="M170,240.2c-0.1,0-0.1-0.6,0-1.3c0.1-0.7,0.3-1.2,0.4-1.2s0.1,0.6,0,1.3
								C170.3,239.7,170.1,240.2,170,240.2z"/>
						</g>
					</g>
					<g>
						<g>
							<path class="st11" d="M170.5,245.1c-0.1,0.1-0.5-0.4-0.6-1.1c-0.2-0.7-0.1-1.3,0-1.3s0.2,0.5,0.4,1.2
								C170.5,244.5,170.7,245.1,170.5,245.1z"/>
						</g>
					</g>
					<g>
						<g>
							<path class="st11" d="M174.4,247.4c0,0.1-0.5,0.2-1.2,0.1s-1.1-0.5-1-0.6s0.5,0,1.1,0.2C173.9,247.1,174.4,247.3,174.4,247.4
								z"/>
						</g>
					</g>
					<g>
						<g>
							<path class="st11" d="M178.9,247.3c0,0.1-0.5,0.2-1.1,0.3c-0.6,0-1.1-0.1-1.1-0.2s0.5-0.2,1.1-0.3
								C178.4,247.1,178.9,247.2,178.9,247.3z"/>
						</g>
					</g>
					<g>
						<g>
							<path class="st11" d="M183.5,247.3c0,0.1-0.5,0.2-1.1,0.3c-0.6,0-1.1-0.1-1.1-0.2s0.5-0.2,1.1-0.3S183.5,247.1,183.5,247.3z"
								/>
						</g>
					</g>
					<g>
						<g>
							<path class="st11" d="M187.2,245c0.1,0,0,0.7-0.4,1.2c-0.5,0.6-1,0.7-1.1,0.6c0-0.1,0.4-0.4,0.8-0.9
								C186.9,245.4,187.1,244.9,187.2,245z"/>
						</g>
					</g>
					<g>
						<g>
							<path class="st11" d="M188,240c0.1,0,0.1,0.6,0,1.3c-0.1,0.7-0.3,1.2-0.4,1.2s-0.1-0.6,0-1.3C187.8,240.5,187.9,240,188,240z
								"/>
						</g>
					</g>
					<g>
						<g>
							<path class="st11" d="M188.5,235c0.1,0,0.2,0.6,0.1,1.3c-0.1,0.7-0.2,1.3-0.3,1.2s-0.2-0.6-0.1-1.3
								C188.3,235.5,188.4,235,188.5,235z"/>
						</g>
					</g>
					<g>
						<g>
							<path class="st11" d="M188.6,231.1c0.1,0,0.2,0.3,0.2,0.7c0,0.4-0.1,0.7-0.2,0.7s-0.2-0.3-0.2-0.7S188.5,231.1,188.6,231.1z"
								/>
						</g>
					</g>
				</g>
				<g>
					<g>
						<path class="st10" d="M159.6,190.7c0,0,9.5,2.8,9.7,27.7h3.8c0,0,1-20.9-9.4-29.1C163.8,189.2,160.8,188.4,159.6,190.7z"/>
					</g>
					<g>
						<path class="st10" d="M179.8,188.9c0,0,6.8,3.6,6.9,28.5h3.3c0,0,0.3-23.3-6.1-27.9C183.9,189.4,182,187.9,179.8,188.9z"/>
					</g>
					<g>
						<g>
							<path class="st11" d="M173.1,216.4c0,0,0.2,0.5,0.2,1.4c0,0.4-0.1,1-0.4,1.5s-1,0.8-1.6,0.8s-1.3-0.2-1.7-0.7
								c-0.4-0.5-0.5-1.1-0.5-1.5c0-0.9,0.1-1.4,0.2-1.4s0,0.6,0.1,1.4c0.1,0.4,0.2,0.9,0.5,1.3s0.8,0.6,1.4,0.5
								c0.6,0,1.1-0.2,1.3-0.6c0.3-0.4,0.4-0.9,0.4-1.3C173.1,217,173.1,216.4,173.1,216.4z"/>
						</g>
					</g>
					<g>
						<g>
							<path class="st11" d="M171.2,217.2c0-0.1,0.2-0.2,0.5,0c0.1,0.1,0.3,0.4,0.2,0.6c0,0.3-0.2,0.5-0.5,0.6s-0.6-0.1-0.7-0.4
								s-0.1-0.5,0-0.7C170.9,217.1,171.2,217.1,171.2,217.2s-0.2,0.2-0.2,0.4c0,0.1,0,0.2,0,0.3c0.1,0.1,0.2,0.2,0.3,0.1
								c0.1,0,0.2-0.1,0.2-0.2s0-0.2-0.1-0.3C171.4,217.2,171.2,217.2,171.2,217.2z"/>
						</g>
					</g>
					<g>
						<g>
							<path class="st11" d="M190.1,216.4c0,0,0.2,0.4,0.2,1.2c0,0.4-0.1,0.9-0.4,1.3s-0.7,0.8-1.3,0.9c-0.6,0.1-1.2-0.2-1.4-0.6
								c-0.3-0.4-0.4-0.9-0.4-1.3c-0.1-0.8,0-1.2,0.1-1.2s0.1,0.5,0.2,1.2c0.1,0.3,0.2,0.7,0.5,1.1c0.2,0.3,0.7,0.5,1.1,0.5
								c0.4-0.1,0.8-0.4,1-0.7c0.2-0.4,0.4-0.8,0.4-1.1C190.1,216.9,190,216.4,190.1,216.4z"/>
						</g>
					</g>
					<g>
						<g>
							<path class="st11" d="M188.2,217c0,0,0.1-0.3,0.5-0.2c0.2,0,0.4,0.2,0.5,0.4c0.1,0.3,0,0.6-0.2,0.8c-0.3,0.2-0.6,0.2-0.8,0
								c-0.2-0.2-0.3-0.4-0.3-0.6C188,217.1,188.3,217,188.2,217c0.1,0.1,0,0.2,0,0.5c0,0.1,0.1,0.2,0.2,0.2c0.1,0.1,0.2,0,0.3,0
								c0.1-0.1,0.1-0.2,0.1-0.3c0-0.1-0.1-0.2-0.2-0.2C188.4,217,188.3,217.1,188.2,217z"/>
						</g>
					</g>
				</g>
				<g>
					<g>
						<g>
							<path class="st10" d="M192.8,263.6l24.1,44.1c1.1,2,1.1,4.6,0,6.6l-22.4,51.3l-18.4-10.8l18.2-39.6c1-2.1,0.8-4.7-0.5-6.7
								l-23.6-31.8l1-13.1H192.8z"/>
						</g>
						<g>
							<g>
								<polygon class="st10" points="155,257.8 143.4,404.6 162.6,404.6 178.9,280 178.7,262.3 								"/>
							</g>
						</g>
						<g>
							<g>
								<path class="st11" d="M165,264.2c0,0,0,0.7-0.4,1.6s-1.2,2.2-2.5,3c-1.3,0.9-2.6,1.1-3.5,1.1c-1,0-1.5-0.2-1.5-0.3
									c0-0.1,0.6,0,1.5,0c0.9-0.1,2.2-0.4,3.3-1.2c1.2-0.8,2-1.9,2.4-2.8C164.8,264.8,165,264.2,165,264.2z"/>
							</g>
						</g>
						<g>
							<g>
								<path class="st11" d="M170.1,344.5c0,0,0-0.3,0.1-0.7c0.1-0.5,0.2-1.2,0.3-2.1c0.3-1.9,0.7-4.5,1.2-7.7
									c1-6.5,2.2-15.5,3.5-25.4s2.3-18.9,3-25.5c0.3-3.2,0.6-5.9,0.8-7.7c0.1-0.9,0.2-1.6,0.2-2.1c0.1-0.5,0.1-0.7,0.1-0.7
									s0,0.3,0,0.7c0,0.5-0.1,1.2-0.1,2.1c-0.1,1.8-0.4,4.5-0.7,7.8c-0.6,6.5-1.7,15.6-2.9,25.5c-1.3,9.9-2.6,18.9-3.6,25.4
									c-0.5,3.2-1,5.9-1.3,7.7c-0.2,0.9-0.3,1.6-0.4,2.1C170.1,344.3,170.1,344.5,170.1,344.5z"/>
							</g>
						</g>
						<g>
							<g>
								<path class="st11" d="M163,401c0,0.1-4.4,0.1-9.7,0c-5.4-0.1-9.7-0.3-9.7-0.5c0-0.1,4.4-0.1,9.7,0
									C158.6,400.7,163,400.9,163,401z"/>
							</g>
						</g>
						<g>
							<g>
								<path class="st11" d="M196.6,362.5c0,0-0.3-0.1-0.8-0.3c-0.5-0.2-1.2-0.6-2.1-1c-1.8-0.9-4.3-2.2-6.9-3.9
									c-2.6-1.6-4.9-3.3-6.6-4.5c-0.8-0.6-1.5-1.1-1.9-1.5s-0.7-0.6-0.7-0.6s0.3,0.1,0.8,0.5s1.2,0.8,2,1.4c1.7,1.2,4,2.7,6.6,4.4
									c2.6,1.6,5,3,6.8,4c0.8,0.5,1.5,0.8,2.1,1.2C196.3,362.3,196.6,362.5,196.6,362.5z"/>
							</g>
						</g>
						<g>
							<g>
								<g>
									<path class="st11" d="M161.1,400.1c0.1,0,0.2,0.3,0.1,0.7c0,0.4-0.2,0.7-0.3,0.6c-0.1,0-0.2-0.3-0.1-0.7
										C160.9,400.4,161,400.1,161.1,400.1z"/>
								</g>
							</g>
							<g>
								<g>
									<path class="st11" d="M161.6,394.8c0.1,0,0.1,0.6,0.1,1.4c-0.1,0.7-0.2,1.3-0.3,1.3c-0.1,0-0.1-0.6-0.1-1.4
										C161.4,395.4,161.5,394.8,161.6,394.8z"/>
								</g>
							</g>
							<g>
								<g>
									<path class="st11" d="M162.2,389.5c0.1,0,0.1,0.6,0.1,1.4c-0.1,0.7-0.2,1.3-0.3,1.3c-0.1,0-0.1-0.6-0.1-1.4
										C161.9,390,162,389.5,162.2,389.5z"/>
								</g>
							</g>
							<g>
								<g>
									<path class="st11" d="M162.7,384.2c0.1,0,0.1,0.6,0.1,1.4c-0.1,0.7-0.2,1.3-0.3,1.3c-0.1,0-0.1-0.6-0.1-1.4
										C162.4,384.7,162.6,384.2,162.7,384.2z"/>
								</g>
							</g>
							<g>
								<g>
									<path class="st11" d="M163.3,378.9c0.1,0,0.1,0.6,0.1,1.4c-0.1,0.7-0.2,1.3-0.3,1.3c-0.1,0-0.1-0.6-0.1-1.4
										C163,379.4,163.2,378.9,163.3,378.9z"/>
								</g>
							</g>
							<g>
								<g>
									<path class="st11" d="M163.9,373.6c0.1,0,0.1,0.6,0.1,1.4c-0.1,0.7-0.2,1.3-0.4,1.3c-0.1,0-0.1-0.6-0.1-1.4
										C163.6,374.1,163.7,373.6,163.9,373.6z"/>
								</g>
							</g>
							<g>
								<g>
									<path class="st11" d="M164.4,368.3c0.1,0,0.1,0.6,0.1,1.4c-0.1,0.7-0.2,1.3-0.4,1.3c-0.1,0-0.1-0.6-0.1-1.4
										C164.2,368.8,164.3,368.3,164.4,368.3z"/>
								</g>
							</g>
							<g>
								<g>
									<path class="st11" d="M165.1,363c0.1,0,0.1,0.6,0.1,1.4c-0.1,0.7-0.2,1.3-0.4,1.3s-0.1-0.6-0.1-1.4
										C164.8,363.5,164.9,363,165.1,363z"/>
								</g>
							</g>
							<g>
								<g>
									<path class="st11" d="M165.7,357.7c0.1,0,0.1,0.6,0.1,1.4c-0.1,0.7-0.2,1.3-0.4,1.3c-0.1,0-0.1-0.6-0.1-1.4
										C165.4,358.2,165.6,357.7,165.7,357.7z"/>
								</g>
							</g>
							<g>
								<g>
									<path class="st11" d="M166.3,352.4c0.1,0,0.1,0.6,0,1.4c-0.1,0.7-0.3,1.3-0.4,1.3s-0.1-0.6,0-1.4
										C166,353,166.2,352.4,166.3,352.4z"/>
								</g>
							</g>
							<g>
								<g>
									<path class="st11" d="M167,347.1c0.1,0,0.1,0.6,0,1.4c-0.1,0.7-0.3,1.3-0.4,1.3s-0.1-0.6,0-1.4
										C166.7,347.7,166.8,347.1,167,347.1z"/>
								</g>
							</g>
							<g>
								<g>
									<path class="st11" d="M167.6,341.8c0.1,0,0.1,0.6,0,1.4c-0.1,0.7-0.3,1.3-0.4,1.3s-0.1-0.6,0-1.4
										C167.3,342.4,167.5,341.8,167.6,341.8z"/>
								</g>
							</g>
							<g>
								<g>
									<path class="st11" d="M168.3,336.5c0.1,0,0.1,0.6,0,1.4c-0.1,0.7-0.3,1.3-0.4,1.3s-0.1-0.6,0-1.4
										C168,337.1,168.2,336.5,168.3,336.5z"/>
								</g>
							</g>
							<g>
								<g>
									<path class="st11" d="M169,331.2c0.1,0,0.1,0.6,0,1.4c-0.1,0.7-0.3,1.3-0.4,1.3s-0.1-0.6,0-1.4
										C168.7,331.8,168.9,331.2,169,331.2z"/>
								</g>
							</g>
							<g>
								<g>
									<path class="st11" d="M169.7,326c0.1,0,0.1,0.6,0,1.4c-0.1,0.7-0.3,1.3-0.4,1.3s-0.1-0.6,0-1.4
										C169.4,326.5,169.6,325.9,169.7,326z"/>
								</g>
							</g>
							<g>
								<g>
									<path class="st11" d="M170.4,320.7c0.1,0,0.1,0.6,0,1.4c-0.1,0.7-0.3,1.3-0.4,1.3s-0.1-0.6,0-1.4
										C170.2,321.2,170.3,320.7,170.4,320.7z"/>
								</g>
							</g>
							<g>
								<g>
									<path class="st11" d="M171.2,315.4c0.1,0,0.1,0.6,0,1.4c-0.1,0.7-0.3,1.3-0.4,1.3s-0.1-0.6,0-1.4
										C170.9,316,171.1,315.4,171.2,315.4z"/>
								</g>
							</g>
							<g>
								<g>
									<path class="st11" d="M171.9,310.1c0.1,0,0.1,0.6,0,1.4c-0.1,0.7-0.3,1.3-0.4,1.3s-0.1-0.6,0-1.4
										C171.6,310.7,171.8,310.1,171.9,310.1z"/>
								</g>
							</g>
							<g>
								<g>
									<path class="st11" d="M172.7,304.9c0.1,0,0.1,0.6,0,1.4c-0.1,0.7-0.3,1.3-0.4,1.3s-0.1-0.6,0-1.4
										C172.4,305.4,172.6,304.8,172.7,304.9z"/>
								</g>
							</g>
							<g>
								<g>
									<path class="st11" d="M173.5,299.6c0.1,0,0.1,0.6,0,1.4c-0.1,0.7-0.3,1.3-0.4,1.3s-0.1-0.6,0-1.4S173.4,299.6,173.5,299.6z
										"/>
								</g>
							</g>
							<g>
								<g>
									<path class="st11" d="M174.3,294.3c0.1,0,0.1,0.6,0,1.4c-0.1,0.7-0.3,1.3-0.4,1.3s-0.1-0.6,0-1.4
										C174,294.9,174.2,294.3,174.3,294.3z"/>
								</g>
							</g>
							<g>
								<g>
									<path class="st11" d="M175.1,289.1c0.1,0,0.1,0.6,0,1.4c-0.1,0.7-0.3,1.3-0.4,1.3s-0.1-0.6,0-1.4
										C174.8,289.6,175,289,175.1,289.1z"/>
								</g>
							</g>
							<g>
								<g>
									<path class="st11" d="M176,283.8c0.1,0,0.1,0.6-0.1,1.4c-0.1,0.7-0.3,1.3-0.5,1.3c-0.1,0-0.1-0.6,0.1-1.4
										C175.7,284.4,175.9,283.8,176,283.8z"/>
								</g>
							</g>
							<g>
								<g>
									<path class="st11" d="M177.4,278.7c0.1,0,0,0.6-0.2,1.3c-0.2,0.7-0.5,1.2-0.6,1.2s0-0.6,0.2-1.3
										C177.1,279.2,177.3,278.7,177.4,278.7z"/>
								</g>
							</g>
							<g>
								<g>
									<path class="st11" d="M179,275.1c0.1,0.1,0.1,0.4-0.1,0.7c-0.2,0.3-0.4,0.5-0.5,0.5c-0.1-0.1-0.1-0.4,0.1-0.7
										C178.7,275.2,178.9,275,179,275.1z"/>
								</g>
							</g>
						</g>
						<g>
							<g>
								<g>
									<path class="st11" d="M180.7,351.8c0.1,0.1,0,0.4-0.2,0.7c-0.2,0.3-0.4,0.5-0.5,0.4s0-0.4,0.2-0.7
										C180.4,351.9,180.6,351.7,180.7,351.8z"/>
								</g>
							</g>
							<g>
								<g>
									<path class="st11" d="M183.3,347.3c0.1,0.1-0.1,0.6-0.5,1.2s-0.7,1.1-0.8,1c-0.1-0.1,0.1-0.6,0.5-1.2
										C182.8,347.7,183.2,347.3,183.3,347.3z"/>
								</g>
							</g>
							<g>
								<g>
									<path class="st11" d="M185.9,342.8c0.1,0.1-0.1,0.6-0.5,1.3c-0.4,0.6-0.7,1.1-0.8,1c-0.1-0.1,0.1-0.6,0.5-1.3
										C185.4,343.2,185.8,342.7,185.9,342.8z"/>
								</g>
							</g>
							<g>
								<g>
									<path class="st11" d="M188.4,338.2c0.1,0.1-0.1,0.6-0.4,1.3c-0.3,0.6-0.7,1.1-0.8,1c-0.1-0.1,0.1-0.6,0.4-1.3
										C187.9,338.6,188.3,338.2,188.4,338.2z"/>
								</g>
							</g>
							<g>
								<g>
									<path class="st11" d="M190.8,333.6c0.1,0.1-0.1,0.6-0.4,1.3c-0.3,0.6-0.7,1.1-0.8,1c-0.1-0.1,0.1-0.6,0.4-1.3
										C190.3,334,190.7,333.6,190.8,333.6z"/>
								</g>
							</g>
							<g>
								<g>
									<path class="st11" d="M193.2,329c0.1,0.1-0.1,0.6-0.4,1.3c-0.3,0.6-0.7,1.1-0.8,1c-0.1-0.1,0.1-0.6,0.4-1.3
										C192.7,329.4,193.1,328.9,193.2,329z"/>
								</g>
							</g>
							<g>
								<g>
									<path class="st11" d="M195.5,324.3c0.1,0.1-0.1,0.6-0.4,1.3c-0.3,0.6-0.7,1.1-0.8,1.1c-0.1-0.1,0.1-0.6,0.4-1.3
										C195.1,324.7,195.4,324.3,195.5,324.3z"/>
								</g>
							</g>
							<g>
								<g>
									<path class="st11" d="M197.8,319.6c0.1,0.1-0.1,0.6-0.4,1.3c-0.3,0.7-0.6,1.1-0.7,1.1c-0.1-0.1,0.1-0.6,0.4-1.3
										C197.3,320,197.6,319.5,197.8,319.6z"/>
								</g>
							</g>
							<g>
								<g>
									<path class="st11" d="M199.5,314.7c0.1,0,0.1,0.6-0.1,1.4c-0.2,0.7-0.5,1.2-0.6,1.2c-0.1-0.1,0-0.6,0.2-1.3
										C199.2,315.2,199.4,314.6,199.5,314.7z"/>
								</g>
							</g>
							<g>
								<g>
									<path class="st11" d="M199.2,309.4c0.1-0.1,0.4,0.5,0.6,1.2s0.1,1.4,0,1.4s-0.2-0.6-0.4-1.3
										C199.2,310.1,199.1,309.5,199.2,309.4z"/>
								</g>
							</g>
							<g>
								<g>
									<path class="st11" d="M196.4,305.1c0.1-0.1,0.5,0.3,0.9,0.9s0.7,1.1,0.6,1.2s-0.5-0.3-0.9-0.9S196.3,305.1,196.4,305.1z"/>
								</g>
							</g>
							<g>
								<g>
									<path class="st11" d="M193.2,301.1c0.1-0.1,0.5,0.3,1,0.8c0.4,0.6,0.7,1.1,0.6,1.2s-0.5-0.3-1-0.8
										C193.4,301.7,193.2,301.1,193.2,301.1z"/>
								</g>
							</g>
							<g>
								<g>
									<path class="st11" d="M190.1,297.1c0.1-0.1,0.5,0.3,1,0.8c0.4,0.6,0.7,1.1,0.6,1.2s-0.5-0.3-1-0.8
										C190.3,297.7,190,297.1,190.1,297.1z"/>
								</g>
							</g>
							<g>
								<g>
									<path class="st11" d="M186.9,293.1c0.1-0.1,0.5,0.3,1,0.8c0.4,0.6,0.7,1.1,0.6,1.2s-0.5-0.3-1-0.8
										C187.1,293.7,186.8,293.1,186.9,293.1z"/>
								</g>
							</g>
							<g>
								<g>
									<path class="st11" d="M183.7,289.1c0.1-0.1,0.5,0.3,1,0.8c0.4,0.6,0.7,1.1,0.6,1.2s-0.5-0.3-1-0.8
										C183.9,289.7,183.6,289.1,183.7,289.1z"/>
								</g>
							</g>
							<g>
								<g>
									<path class="st11" d="M180.5,285.1c0.1-0.1,0.5,0.3,1,0.8c0.4,0.6,0.7,1.1,0.6,1.2s-0.5-0.3-1-0.8
										C180.7,285.7,180.4,285.1,180.5,285.1z"/>
								</g>
							</g>
							<g>
								<g>
									<path class="st11" d="M178.1,282.1c0.1-0.1,0.3,0.1,0.6,0.3c0.2,0.3,0.3,0.6,0.2,0.7c-0.1,0.1-0.3-0.1-0.6-0.3
										C178.1,282.4,178,282.2,178.1,282.1z"/>
								</g>
							</g>
						</g>
					</g>
					<g>
						<g>
							<path class="st11" d="M190.9,261.2c0,0,0.2,0.2,0.4,0.6c0.3,0.4,0.6,1,1.1,1.7c0.9,1.5,2.3,3.7,3.9,6.5
								c3.2,5.5,7.4,13.3,12.2,21.8c2.4,4.2,4.8,8.2,7,11.8c1.1,1.8,2.1,3.7,2.4,5.6c0.1,1,0.2,1.9,0,2.8c-0.1,0.9-0.4,1.7-0.6,2.5
								c-0.6,1.5-1.3,2.8-1.9,3.9s-1.2,2-1.6,2.8s-0.7,1.4-1,1.8c-0.2,0.4-0.3,0.6-0.4,0.6c0,0,0.1-0.2,0.3-0.7
								c0.2-0.4,0.5-1.1,0.9-1.8c0.4-0.8,0.9-1.8,1.5-2.9s1.3-2.4,1.8-3.9c0.3-0.8,0.5-1.6,0.6-2.4c0.1-0.9,0.1-1.8-0.1-2.7
								c-0.3-1.9-1.2-3.7-2.4-5.4c-2.2-3.5-4.7-7.5-7.1-11.8c-4.8-8.5-8.9-16.3-12.1-21.8c-1.6-2.8-2.9-5-3.8-6.5
								c-0.4-0.7-0.8-1.3-1-1.8C191,261.4,190.9,261.2,190.9,261.2z"/>
						</g>
					</g>
				</g>
			</g>
		</g>
	</g>
	<g class="st2">
		<g>
			<path class="st12" d="M449.6,501.6v-1.8c0-4.1,3-7.4,6.7-7.4h56.3c3.7,0,6.7,3.3,6.7,7.4v1.8H449.6z"/>
		</g>
		<g>
			<path class="st12" d="M482.3,422.3L462,492.4h43.5l-18.9-70.1C485.9,420,482.9,420,482.3,422.3z"/>
		</g>
		<g class="st18">
			<polygon class="st16" points="475.6,445.1 492.6,445.1 500,472.4 467.7,472.4 			"/>
		</g>
		<g class="st14">
			<polygon points="461.9,492.4 505.4,492.4 503.8,486.6 462.8,489.5 			"/>
		</g>
		<g class="st21">
			<g>
				<path class="st16" d="M459.7,494.9c0,0.1-0.5-0.1-1.4,0c-0.8,0-2,0.2-3.1,0.9s-1.9,1.7-2.4,2.4c-0.5,0.8-0.7,1.3-0.7,1.3
					s0.1-0.6,0.5-1.5s1.3-1.9,2.5-2.7c1.2-0.7,2.5-0.9,3.4-0.8C459.2,494.6,459.7,494.8,459.7,494.9z"/>
			</g>
		</g>
		<g class="st21">
			<g>
				<path class="st16" d="M469.5,474.3c0.1,0-0.7,2.8-1.8,6.2c-1.1,3.4-2.1,6.1-2.2,6.1s0.7-2.8,1.8-6.2
					C468.4,477,469.4,474.2,469.5,474.3z"/>
			</g>
		</g>
		<g class="st21">
			<g>
				<path class="st16" d="M483.7,422.8c0.1,0-0.3,1.1-0.8,3c-0.6,1.9-1.3,4.4-2.1,7.1c-0.8,2.7-1.5,5.1-2,7.1
					c-0.5,1.8-0.9,2.9-0.9,2.9c-0.1,0,0.2-1.2,0.6-3c0.5-1.8,1.1-4.4,1.9-7.1c0.8-2.8,1.6-5.3,2.2-7
					C483.3,423.9,483.7,422.8,483.7,422.8z"/>
			</g>
		</g>
	</g>
</g>
</svg>
