<?xml version="1.0" encoding="utf-8"?>
<!-- Generator: Adobe Illustrator 23.0.5, SVG Export Plug-In . SVG Version: 6.00 Build 0)  -->
<svg version="1.1" id="Layer_1" xmlns="http://www.w3.org/2000/svg" xmlns:xlink="http://www.w3.org/1999/xlink" x="0px" y="0px"
	 viewBox="0 0 640 640" style="enable-background:new 0 0 640 640;" xml:space="preserve">
<style type="text/css">
	.st0{fill:#FF4F5B;}
	.st1{enable-background:new    ;}
	.st2{fill:#FFFFFF;}
</style>
<g>
	<g>
		<path class="st0" d="M426.9,392.3H213.8c-20.5,0-37.1-16.6-37.1-37.1l0,0c0-20.5,16.6-37.1,37.1-37.1h213.1
			c20.5,0,37.1,16.6,37.1,37.1l0,0C464,375.7,447.4,392.3,426.9,392.3z"/>
	</g>
	<g>
		<g class="st1">
			<path class="st2" d="M220.1,366.9v-30.1h4v26.6h14.8v3.6H220.1z"/>
			<path class="st2" d="M258.2,359.8l3.8,0.5c-0.6,2.2-1.7,4-3.4,5.2c-1.6,1.2-3.7,1.9-6.3,1.9c-3.2,0-5.7-1-7.6-3
				c-1.9-2-2.8-4.7-2.8-8.3c0-3.7,0.9-6.5,2.8-8.6c1.9-2,4.3-3,7.4-3c2.9,0,5.3,1,7.2,3c1.9,2,2.8,4.8,2.8,8.4c0,0.2,0,0.5,0,1
				h-16.3c0.1,2.4,0.8,4.2,2,5.5c1.2,1.3,2.7,1.9,4.6,1.9c1.4,0,2.5-0.4,3.5-1.1C256.8,362.5,257.6,361.4,258.2,359.8z M246,353.9
				h12.2c-0.2-1.8-0.6-3.2-1.4-4.1c-1.2-1.4-2.7-2.1-4.6-2.1c-1.7,0-3.1,0.6-4.3,1.7C246.8,350.4,246.1,352,246,353.9z"/>
			<path class="st2" d="M280.9,364.2c-1.4,1.2-2.7,2-4,2.5c-1.3,0.5-2.6,0.7-4.1,0.7c-2.4,0-4.2-0.6-5.5-1.8s-1.9-2.7-1.9-4.5
				c0-1.1,0.2-2,0.7-2.9c0.5-0.9,1.1-1.6,1.9-2.1c0.8-0.5,1.7-0.9,2.7-1.2c0.7-0.2,1.8-0.4,3.3-0.6c3-0.4,5.2-0.8,6.6-1.3
				c0-0.5,0-0.8,0-1c0-1.5-0.3-2.6-1-3.2c-0.9-0.8-2.4-1.3-4.2-1.3c-1.7,0-3,0.3-3.9,0.9c-0.8,0.6-1.4,1.7-1.8,3.2l-3.6-0.5
				c0.3-1.5,0.9-2.8,1.6-3.8c0.8-1,1.8-1.7,3.3-2.2c1.4-0.5,3.1-0.8,5-0.8c1.9,0,3.4,0.2,4.5,0.7c1.2,0.4,2,1,2.6,1.7
				c0.5,0.7,0.9,1.5,1.2,2.5c0.1,0.6,0.2,1.8,0.2,3.4v4.9c0,3.4,0.1,5.6,0.2,6.5c0.2,0.9,0.5,1.8,0.9,2.6h-3.9
				C281.2,366.1,281,365.2,280.9,364.2z M280.6,355.9c-1.3,0.5-3.4,1-6,1.4c-1.5,0.2-2.6,0.5-3.2,0.7c-0.6,0.3-1.1,0.7-1.5,1.2
				c-0.3,0.5-0.5,1.1-0.5,1.8c0,1,0.4,1.8,1.1,2.5c0.7,0.7,1.8,1,3.3,1c1.4,0,2.7-0.3,3.8-0.9s1.9-1.5,2.4-2.6
				c0.4-0.8,0.6-2.1,0.6-3.7V355.9z"/>
			<path class="st2" d="M290,366.9V345h3.3v3.3c0.9-1.5,1.6-2.6,2.4-3.1c0.7-0.5,1.5-0.7,2.4-0.7c1.2,0,2.5,0.4,3.8,1.2l-1.3,3.4
				c-0.9-0.5-1.8-0.8-2.7-0.8c-0.8,0-1.5,0.2-2.2,0.7c-0.6,0.5-1.1,1.2-1.4,2c-0.4,1.3-0.6,2.8-0.6,4.3v11.4H290z"/>
			<path class="st2" d="M304.1,366.9V345h3.3v3.1c1.6-2.4,3.9-3.6,7-3.6c1.3,0,2.5,0.2,3.6,0.7c1.1,0.5,1.9,1.1,2.5,1.9
				c0.5,0.8,0.9,1.7,1.2,2.7c0.1,0.7,0.2,1.9,0.2,3.6v13.4h-3.7v-13.3c0-1.5-0.1-2.6-0.4-3.4s-0.8-1.3-1.5-1.8s-1.6-0.7-2.6-0.7
				c-1.6,0-2.9,0.5-4.1,1.5c-1.1,1-1.7,2.9-1.7,5.7v11.9H304.1z"/>
			<path class="st2" d="M339.6,366.9v-30.1h6l7.1,21.3c0.7,2,1.1,3.5,1.4,4.5c0.3-1.1,0.9-2.7,1.6-4.8l7.2-21h5.4v30.1h-3.8v-25.2
				l-8.8,25.2h-3.6l-8.7-25.7v25.7H339.6z"/>
			<path class="st2" d="M372.9,356c0-4,1.1-7,3.4-9c1.9-1.6,4.2-2.4,6.9-2.4c3,0,5.5,1,7.4,3c1.9,2,2.9,4.7,2.9,8.2
				c0,2.8-0.4,5-1.3,6.6c-0.8,1.6-2.1,2.9-3.7,3.8c-1.6,0.9-3.4,1.3-5.3,1.3c-3.1,0-5.5-1-7.4-2.9
				C373.9,362.5,372.9,359.6,372.9,356z M376.7,356c0,2.8,0.6,4.9,1.8,6.3c1.2,1.4,2.8,2.1,4.6,2.1c1.8,0,3.4-0.7,4.6-2.1
				s1.8-3.5,1.8-6.4c0-2.7-0.6-4.7-1.8-6.1c-1.2-1.4-2.8-2.1-4.6-2.1c-1.9,0-3.4,0.7-4.6,2.1S376.7,353.2,376.7,356z"/>
			<path class="st2" d="M397.7,366.9V345h3.3v3.3c0.9-1.5,1.6-2.6,2.4-3.1c0.7-0.5,1.5-0.7,2.4-0.7c1.2,0,2.5,0.4,3.8,1.2l-1.3,3.4
				c-0.9-0.5-1.8-0.8-2.7-0.8c-0.8,0-1.5,0.2-2.2,0.7c-0.6,0.5-1.1,1.2-1.4,2c-0.4,1.3-0.6,2.8-0.6,4.3v11.4H397.7z"/>
			<path class="st2" d="M426.7,359.8l3.8,0.5c-0.6,2.2-1.7,4-3.4,5.2c-1.6,1.2-3.7,1.9-6.3,1.9c-3.2,0-5.7-1-7.6-3
				c-1.9-2-2.8-4.7-2.8-8.3c0-3.7,0.9-6.5,2.8-8.6c1.9-2,4.3-3,7.4-3c2.9,0,5.3,1,7.2,3c1.9,2,2.8,4.8,2.8,8.4c0,0.2,0,0.5,0,1
				h-16.3c0.1,2.4,0.8,4.2,2,5.5c1.2,1.3,2.7,1.9,4.6,1.9c1.4,0,2.5-0.4,3.5-1.1C425.4,362.5,426.1,361.4,426.7,359.8z M414.5,353.9
				h12.2c-0.2-1.8-0.6-3.2-1.4-4.1c-1.2-1.4-2.7-2.1-4.6-2.1c-1.7,0-3.1,0.6-4.3,1.7C415.3,350.4,414.7,352,414.5,353.9z"/>
		</g>
	</g>
</g>
</svg>
